<svg width="233" height="97" viewBox="0 0 233 97" fill="none" xmlns="http://www.w3.org/2000/svg">
<rect width="233" height="97" rx="10" fill="white"/>
<path d="M112.943 31.1477H111.17C111.102 30.7689 110.975 30.4356 110.79 30.1477C110.604 29.8598 110.377 29.6155 110.108 29.4148C109.839 29.214 109.538 29.0625 109.205 28.9602C108.875 28.858 108.525 28.8068 108.153 28.8068C107.483 28.8068 106.883 28.9754 106.352 29.3125C105.826 29.6496 105.409 30.1439 105.102 30.7955C104.799 31.447 104.648 32.2424 104.648 33.1818C104.648 34.1288 104.799 34.928 105.102 35.5795C105.409 36.2311 105.828 36.7235 106.358 37.0568C106.888 37.3902 107.485 37.5568 108.148 37.5568C108.515 37.5568 108.864 37.5076 109.193 37.4091C109.527 37.3068 109.828 37.1572 110.097 36.9602C110.366 36.7633 110.593 36.5227 110.778 36.2386C110.968 35.9508 111.098 35.6212 111.17 35.25L112.943 35.2557C112.848 35.8277 112.665 36.3542 112.392 36.8352C112.123 37.3125 111.777 37.7254 111.352 38.0739C110.932 38.4186 110.451 38.6856 109.909 38.875C109.367 39.0644 108.777 39.1591 108.136 39.1591C107.129 39.1591 106.231 38.9205 105.443 38.4432C104.655 37.9621 104.034 37.2746 103.58 36.3807C103.129 35.4867 102.903 34.4205 102.903 33.1818C102.903 31.9394 103.131 30.8731 103.585 29.983C104.04 29.089 104.661 28.4034 105.449 27.9261C106.237 27.4451 107.133 27.2045 108.136 27.2045C108.754 27.2045 109.33 27.2936 109.864 27.4716C110.402 27.6458 110.884 27.9034 111.312 28.2443C111.741 28.5814 112.095 28.9943 112.375 29.483C112.655 29.9678 112.845 30.5227 112.943 31.1477ZM116.607 27.3636V39H114.908V27.3636H116.607ZM118.892 39V30.2727H120.591V39H118.892ZM119.75 28.9261C119.455 28.9261 119.201 28.8277 118.989 28.6307C118.78 28.4299 118.676 28.1913 118.676 27.9148C118.676 27.6345 118.78 27.3958 118.989 27.1989C119.201 26.9981 119.455 26.8977 119.75 26.8977C120.045 26.8977 120.297 26.9981 120.506 27.1989C120.718 27.3958 120.824 27.6345 120.824 27.9148C120.824 28.1913 120.718 28.4299 120.506 28.6307C120.297 28.8277 120.045 28.9261 119.75 28.9261ZM126.638 39.1761C125.778 39.1761 125.037 38.9924 124.416 38.625C123.799 38.2538 123.321 37.733 122.984 37.0625C122.651 36.3883 122.484 35.5985 122.484 34.6932C122.484 33.7992 122.651 33.0114 122.984 32.3295C123.321 31.6477 123.791 31.1155 124.393 30.733C125 30.3504 125.708 30.1591 126.518 30.1591C127.011 30.1591 127.488 30.2405 127.95 30.4034C128.412 30.5663 128.827 30.822 129.195 31.1705C129.562 31.5189 129.852 31.9716 130.064 32.5284C130.276 33.0814 130.382 33.7538 130.382 34.5455V35.1477H123.445V33.875H128.717C128.717 33.428 128.626 33.0322 128.445 32.6875C128.263 32.339 128.007 32.0644 127.678 31.8636C127.352 31.6629 126.969 31.5625 126.53 31.5625C126.053 31.5625 125.636 31.6799 125.28 31.9148C124.928 32.1458 124.655 32.4489 124.462 32.8239C124.272 33.1951 124.178 33.5985 124.178 34.0341V35.0284C124.178 35.6117 124.28 36.108 124.484 36.517C124.693 36.9261 124.982 37.2386 125.354 37.4545C125.725 37.6667 126.159 37.7727 126.655 37.7727C126.977 37.7727 127.27 37.7273 127.536 37.6364C127.801 37.5417 128.03 37.4015 128.223 37.2159C128.416 37.0303 128.564 36.8011 128.666 36.5284L130.274 36.8182C130.145 37.2917 129.914 37.7064 129.581 38.0625C129.251 38.4148 128.837 38.6894 128.337 38.8864C127.84 39.0795 127.274 39.1761 126.638 39.1761ZM133.966 33.8182V39H132.267V30.2727H133.898V31.6932H134.006C134.206 31.2311 134.521 30.8598 134.949 30.5795C135.381 30.2992 135.924 30.1591 136.58 30.1591C137.174 30.1591 137.695 30.2841 138.142 30.5341C138.589 30.7803 138.936 31.1477 139.182 31.6364C139.428 32.125 139.551 32.7292 139.551 33.4489V39H137.852V33.6534C137.852 33.0208 137.688 32.5265 137.358 32.1705C137.028 31.8106 136.576 31.6307 136 31.6307C135.606 31.6307 135.256 31.7159 134.949 31.8864C134.646 32.0568 134.405 32.3068 134.227 32.6364C134.053 32.9621 133.966 33.3561 133.966 33.8182ZM145.903 30.2727V31.6364H141.136V30.2727H145.903ZM142.415 28.1818H144.114V36.4375C144.114 36.767 144.163 37.0152 144.261 37.1818C144.36 37.3447 144.487 37.4564 144.642 37.517C144.801 37.5739 144.973 37.6023 145.159 37.6023C145.295 37.6023 145.415 37.5928 145.517 37.5739C145.619 37.5549 145.699 37.5398 145.756 37.5284L146.062 38.9318C145.964 38.9697 145.824 39.0076 145.642 39.0455C145.46 39.0871 145.233 39.1098 144.96 39.1136C144.513 39.1212 144.097 39.0417 143.71 38.875C143.324 38.7083 143.011 38.4508 142.773 38.1023C142.534 37.7538 142.415 37.3163 142.415 36.7898V28.1818ZM154.182 32.4034L152.642 32.6761C152.578 32.4792 152.475 32.2917 152.335 32.1136C152.199 31.9356 152.013 31.7898 151.778 31.6761C151.544 31.5625 151.25 31.5057 150.898 31.5057C150.417 31.5057 150.015 31.6136 149.693 31.8295C149.371 32.0417 149.21 32.3163 149.21 32.6534C149.21 32.9451 149.318 33.1799 149.534 33.358C149.75 33.536 150.098 33.6818 150.58 33.7955L151.966 34.1136C152.769 34.2992 153.367 34.5852 153.761 34.9716C154.155 35.358 154.352 35.8598 154.352 36.4773C154.352 37 154.201 37.4659 153.898 37.875C153.598 38.2803 153.18 38.5985 152.642 38.8295C152.108 39.0606 151.489 39.1761 150.784 39.1761C149.807 39.1761 149.009 38.9678 148.392 38.5511C147.775 38.1307 147.396 37.5341 147.256 36.7614L148.898 36.5114C149 36.9394 149.21 37.2633 149.528 37.483C149.847 37.6989 150.261 37.8068 150.773 37.8068C151.33 37.8068 151.775 37.6913 152.108 37.4602C152.441 37.2254 152.608 36.9394 152.608 36.6023C152.608 36.3295 152.506 36.1004 152.301 35.9148C152.1 35.7292 151.792 35.589 151.375 35.4943L149.898 35.1705C149.083 34.9848 148.481 34.6894 148.091 34.2841C147.705 33.8788 147.511 33.3655 147.511 32.7443C147.511 32.2292 147.655 31.7784 147.943 31.392C148.231 31.0057 148.629 30.7045 149.136 30.4886C149.644 30.2689 150.225 30.1591 150.881 30.1591C151.824 30.1591 152.566 30.3636 153.108 30.7727C153.65 31.178 154.008 31.7216 154.182 32.4034Z" fill="#1F1F1F"/>
<path d="M103.415 68V65.3409L109.628 59.5881C110.156 59.0767 110.599 58.6165 110.957 58.2074C111.321 57.7983 111.597 57.3977 111.784 57.0057C111.972 56.608 112.065 56.179 112.065 55.7188C112.065 55.2074 111.949 54.767 111.716 54.3977C111.483 54.0227 111.165 53.7358 110.761 53.5369C110.358 53.3324 109.901 53.2301 109.389 53.2301C108.855 53.2301 108.389 53.3381 107.991 53.554C107.594 53.7699 107.287 54.0795 107.071 54.483C106.855 54.8864 106.747 55.3665 106.747 55.9233H103.244C103.244 54.7812 103.503 53.7898 104.02 52.9489C104.537 52.108 105.261 51.4574 106.193 50.9972C107.125 50.5369 108.199 50.3068 109.415 50.3068C110.665 50.3068 111.753 50.5284 112.679 50.9716C113.611 51.4091 114.335 52.017 114.852 52.7955C115.369 53.5739 115.628 54.4659 115.628 55.4716C115.628 56.1307 115.497 56.7812 115.236 57.4233C114.98 58.0653 114.523 58.7784 113.864 59.5625C113.205 60.3409 112.276 61.2756 111.077 62.3665L108.528 64.8636V64.983H115.858V68H103.415ZM125.376 68.3835C123.91 68.3778 122.648 68.017 121.592 67.3011C120.54 66.5852 119.731 65.5483 119.163 64.1903C118.6 62.8324 118.322 61.1989 118.327 59.2898C118.327 57.3864 118.609 55.7642 119.171 54.4233C119.739 53.0824 120.549 52.0625 121.6 51.3636C122.657 50.6591 123.915 50.3068 125.376 50.3068C126.836 50.3068 128.092 50.6591 129.143 51.3636C130.2 52.0682 131.012 53.0909 131.58 54.4318C132.148 55.767 132.43 57.3864 132.424 59.2898C132.424 61.2045 132.14 62.8409 131.572 64.1989C131.009 65.5568 130.202 66.5937 129.151 67.3097C128.1 68.0256 126.842 68.3835 125.376 68.3835ZM125.376 65.3239C126.376 65.3239 127.174 64.821 127.771 63.8153C128.367 62.8097 128.663 61.3011 128.657 59.2898C128.657 57.9659 128.521 56.8636 128.248 55.983C127.981 55.1023 127.6 54.4403 127.106 53.9972C126.617 53.554 126.04 53.3324 125.376 53.3324C124.381 53.3324 123.586 53.8295 122.989 54.8239C122.393 55.8182 122.092 57.3068 122.086 59.2898C122.086 60.6307 122.219 61.75 122.487 62.6477C122.759 63.5398 123.143 64.2102 123.637 64.6591C124.131 65.1023 124.711 65.3239 125.376 65.3239ZM141.899 68.3835C140.433 68.3778 139.172 68.017 138.115 67.3011C137.064 66.5852 136.254 65.5483 135.686 64.1903C135.124 62.8324 134.845 61.1989 134.851 59.2898C134.851 57.3864 135.132 55.7642 135.695 54.4233C136.263 53.0824 137.072 52.0625 138.124 51.3636C139.18 50.6591 140.439 50.3068 141.899 50.3068C143.359 50.3068 144.615 50.6591 145.666 51.3636C146.723 52.0682 147.536 53.0909 148.104 54.4318C148.672 55.767 148.953 57.3864 148.947 59.2898C148.947 61.2045 148.663 62.8409 148.095 64.1989C147.533 65.5568 146.726 66.5937 145.675 67.3097C144.624 68.0256 143.365 68.3835 141.899 68.3835ZM141.899 65.3239C142.899 65.3239 143.697 64.821 144.294 63.8153C144.891 62.8097 145.186 61.3011 145.18 59.2898C145.18 57.9659 145.044 56.8636 144.771 55.983C144.504 55.1023 144.124 54.4403 143.629 53.9972C143.141 53.554 142.564 53.3324 141.899 53.3324C140.905 53.3324 140.109 53.8295 139.513 54.8239C138.916 55.8182 138.615 57.3068 138.609 59.2898C138.609 60.6307 138.743 61.75 139.01 62.6477C139.283 63.5398 139.666 64.2102 140.161 64.6591C140.655 65.1023 141.234 65.3239 141.899 65.3239ZM158.423 68.3835C156.957 68.3778 155.695 68.017 154.638 67.3011C153.587 66.5852 152.778 65.5483 152.21 64.1903C151.647 62.8324 151.369 61.1989 151.374 59.2898C151.374 57.3864 151.656 55.7642 152.218 54.4233C152.786 53.0824 153.596 52.0625 154.647 51.3636C155.704 50.6591 156.962 50.3068 158.423 50.3068C159.883 50.3068 161.138 50.6591 162.19 51.3636C163.246 52.0682 164.059 53.0909 164.627 54.4318C165.195 55.767 165.477 57.3864 165.471 59.2898C165.471 61.2045 165.187 62.8409 164.619 64.1989C164.056 65.5568 163.249 66.5937 162.198 67.3097C161.147 68.0256 159.888 68.3835 158.423 68.3835ZM158.423 65.3239C159.423 65.3239 160.221 64.821 160.817 63.8153C161.414 62.8097 161.71 61.3011 161.704 59.2898C161.704 57.9659 161.567 56.8636 161.295 55.983C161.028 55.1023 160.647 54.4403 160.153 53.9972C159.664 53.554 159.087 53.3324 158.423 53.3324C157.428 53.3324 156.633 53.8295 156.036 54.8239C155.44 55.8182 155.138 57.3068 155.133 59.2898C155.133 60.6307 155.266 61.75 155.533 62.6477C155.806 63.5398 156.19 64.2102 156.684 64.6591C157.178 65.1023 157.758 65.3239 158.423 65.3239ZM173.318 65.3409V53.2727H176.369V65.3409H173.318ZM168.81 60.8324V57.7812H180.878V60.8324H168.81Z" fill="#3853B2"/>
<circle cx="45" cy="48" r="29" fill="#3853B2"/>
<path fill-rule="evenodd" clip-rule="evenodd" d="M44.9178 46.0115C48.2346 46.0115 50.9235 43.3226 50.9235 40.0057C50.9235 36.6888 48.2346 34 44.9178 34C41.601 34 38.9121 36.6888 38.9121 40.0057C38.9121 43.3226 41.601 46.0115 44.9178 46.0115ZM44.9178 44.2098C47.2397 44.2098 49.1218 42.3275 49.1218 40.0057C49.1218 37.6839 47.2397 35.8017 44.9178 35.8017C42.5959 35.8017 40.7138 37.6839 40.7138 40.0057C40.7138 42.3275 42.5959 44.2098 44.9178 44.2098Z" fill="white"/>
<path fill-rule="evenodd" clip-rule="evenodd" d="M36.8103 43.9096C36.8103 46.3972 34.7937 48.4138 32.306 48.4138C29.8184 48.4138 27.8018 46.3972 27.8018 43.9096C27.8018 41.4219 29.8184 39.4053 32.306 39.4053C34.7937 39.4053 36.8103 41.4219 36.8103 43.9096ZM35.0086 43.9096C35.0086 45.4021 33.7986 46.6121 32.306 46.6121C30.8134 46.6121 29.6035 45.4021 29.6035 43.9096C29.6035 42.417 30.8134 41.207 32.306 41.207C33.7986 41.207 35.0086 42.417 35.0086 43.9096Z" fill="white"/>
<path fill-rule="evenodd" clip-rule="evenodd" d="M26 59.2238V55.6204C26 52.1377 28.8233 49.3144 32.306 49.3144C34.5128 49.3144 36.4548 50.448 37.5816 52.1645C38.8789 49.4151 41.6763 47.5127 44.918 47.5127C48.1596 47.5127 50.957 49.4151 52.2544 52.1645C53.3812 50.448 55.3232 49.3144 57.53 49.3144C61.0127 49.3144 63.836 52.1377 63.836 55.6204V59.2238C63.836 59.7213 63.4326 60.1247 62.9351 60.1247H26.9009C26.4033 60.1247 26 59.7213 26 59.2238ZM27.8017 55.6204C27.8017 53.1328 29.8184 51.1161 32.306 51.1161C34.7936 51.1161 36.8103 53.1328 36.8103 55.6204V58.323H27.8017V55.6204ZM62.0343 58.323V55.6204C62.0343 53.1328 60.0176 51.1161 57.53 51.1161C55.0424 51.1161 53.0257 53.1328 53.0257 55.6204V58.323H62.0343ZM51.224 58.323V55.6204C51.224 52.1377 48.4007 49.3144 44.918 49.3144C41.4353 49.3144 38.612 52.1377 38.612 55.6204V58.323H51.224Z" fill="white"/>
<path fill-rule="evenodd" clip-rule="evenodd" d="M62.034 43.9096C62.034 46.3972 60.0173 48.4138 57.5297 48.4138C55.042 48.4138 53.0254 46.3972 53.0254 43.9096C53.0254 41.4219 55.042 39.4053 57.5297 39.4053C60.0173 39.4053 62.034 41.4219 62.034 43.9096ZM60.2322 43.9096C60.2322 45.4021 59.0222 46.6121 57.5297 46.6121C56.0371 46.6121 54.8271 45.4021 54.8271 43.9096C54.8271 42.417 56.0371 41.207 57.5297 41.207C59.0222 41.207 60.2322 42.417 60.2322 43.9096Z" fill="white"/>
</svg>
