<svg width="278" height="98" viewBox="0 0 278 98" fill="none" xmlns="http://www.w3.org/2000/svg">
<rect width="277.572" height="97.76" rx="8" fill="white"/>
<path d="M98.2614 38H96.3977L100.585 26.3636H102.614L106.801 38H104.938L101.648 28.4773H101.557L98.2614 38ZM98.5739 33.4432H104.619V34.9205H98.5739V33.4432ZM114.822 31.4034L113.283 31.6761C113.218 31.4792 113.116 31.2917 112.976 31.1136C112.839 30.9356 112.654 30.7898 112.419 30.6761C112.184 30.5625 111.891 30.5057 111.538 30.5057C111.057 30.5057 110.656 30.6136 110.334 30.8295C110.012 31.0417 109.851 31.3163 109.851 31.6534C109.851 31.9451 109.959 32.1799 110.175 32.358C110.391 32.536 110.739 32.6818 111.22 32.7955L112.607 33.1136C113.41 33.2992 114.008 33.5852 114.402 33.9716C114.796 34.358 114.993 34.8598 114.993 35.4773C114.993 36 114.841 36.4659 114.538 36.875C114.239 37.2803 113.821 37.5985 113.283 37.8295C112.749 38.0606 112.129 38.1761 111.425 38.1761C110.447 38.1761 109.65 37.9678 109.033 37.5511C108.415 37.1307 108.036 36.5341 107.896 35.7614L109.538 35.5114C109.641 35.9394 109.851 36.2633 110.169 36.483C110.487 36.6989 110.902 36.8068 111.413 36.8068C111.97 36.8068 112.415 36.6913 112.749 36.4602C113.082 36.2254 113.249 35.9394 113.249 35.6023C113.249 35.3295 113.146 35.1004 112.942 34.9148C112.741 34.7292 112.432 34.589 112.016 34.4943L110.538 34.1705C109.724 33.9848 109.122 33.6894 108.732 33.2841C108.345 32.8788 108.152 32.3655 108.152 31.7443C108.152 31.2292 108.296 30.7784 108.584 30.392C108.872 30.0057 109.269 29.7045 109.777 29.4886C110.285 29.2689 110.866 29.1591 111.521 29.1591C112.464 29.1591 113.207 29.3636 113.749 29.7727C114.29 30.178 114.648 30.7216 114.822 31.4034ZM123.401 31.4034L121.861 31.6761C121.796 31.4792 121.694 31.2917 121.554 31.1136C121.418 30.9356 121.232 30.7898 120.997 30.6761C120.762 30.5625 120.469 30.5057 120.116 30.5057C119.635 30.5057 119.234 30.6136 118.912 30.8295C118.59 31.0417 118.429 31.3163 118.429 31.6534C118.429 31.9451 118.537 32.1799 118.753 32.358C118.969 32.536 119.317 32.6818 119.798 32.7955L121.185 33.1136C121.988 33.2992 122.586 33.5852 122.98 33.9716C123.374 34.358 123.571 34.8598 123.571 35.4773C123.571 36 123.42 36.4659 123.116 36.875C122.817 37.2803 122.399 37.5985 121.861 37.8295C121.327 38.0606 120.707 38.1761 120.003 38.1761C119.026 38.1761 118.228 37.9678 117.611 37.5511C116.993 37.1307 116.615 36.5341 116.474 35.7614L118.116 35.5114C118.219 35.9394 118.429 36.2633 118.747 36.483C119.065 36.6989 119.48 36.8068 119.991 36.8068C120.548 36.8068 120.993 36.6913 121.327 36.4602C121.66 36.2254 121.827 35.9394 121.827 35.6023C121.827 35.3295 121.724 35.1004 121.52 34.9148C121.319 34.7292 121.01 34.589 120.594 34.4943L119.116 34.1705C118.302 33.9848 117.7 33.6894 117.31 33.2841C116.923 32.8788 116.73 32.3655 116.73 31.7443C116.73 31.2292 116.874 30.7784 117.162 30.392C117.45 30.0057 117.848 29.7045 118.355 29.4886C118.863 29.2689 119.444 29.1591 120.099 29.1591C121.043 29.1591 121.785 29.3636 122.327 29.7727C122.868 30.178 123.226 30.7216 123.401 31.4034ZM129.2 38.1761C128.34 38.1761 127.6 37.9924 126.979 37.625C126.361 37.2538 125.884 36.733 125.547 36.0625C125.214 35.3883 125.047 34.5985 125.047 33.6932C125.047 32.7992 125.214 32.0114 125.547 31.3295C125.884 30.6477 126.354 30.1155 126.956 29.733C127.562 29.3504 128.27 29.1591 129.081 29.1591C129.573 29.1591 130.051 29.2405 130.513 29.4034C130.975 29.5663 131.39 29.822 131.757 30.1705C132.125 30.5189 132.414 30.9716 132.626 31.5284C132.839 32.0814 132.945 32.7538 132.945 33.5455V34.1477H126.007V32.875H131.28C131.28 32.428 131.189 32.0322 131.007 31.6875C130.825 31.339 130.57 31.0644 130.24 30.8636C129.914 30.6629 129.532 30.5625 129.092 30.5625C128.615 30.5625 128.198 30.6799 127.842 30.9148C127.49 31.1458 127.217 31.4489 127.024 31.8239C126.835 32.1951 126.74 32.5985 126.74 33.0341V34.0284C126.74 34.6117 126.842 35.108 127.047 35.517C127.255 35.9261 127.545 36.2386 127.916 36.4545C128.287 36.6667 128.721 36.7727 129.217 36.7727C129.539 36.7727 129.833 36.7273 130.098 36.6364C130.363 36.5417 130.592 36.4015 130.786 36.2159C130.979 36.0303 131.126 35.8011 131.229 35.5284L132.837 35.8182C132.708 36.2917 132.477 36.7064 132.143 37.0625C131.814 37.4148 131.399 37.6894 130.899 37.8864C130.403 38.0795 129.837 38.1761 129.2 38.1761ZM138.903 29.2727V30.6364H134.136V29.2727H138.903ZM135.415 27.1818H137.114V35.4375C137.114 35.767 137.163 36.0152 137.261 36.1818C137.36 36.3447 137.487 36.4564 137.642 36.517C137.801 36.5739 137.973 36.6023 138.159 36.6023C138.295 36.6023 138.415 36.5928 138.517 36.5739C138.619 36.5549 138.699 36.5398 138.756 36.5284L139.062 37.9318C138.964 37.9697 138.824 38.0076 138.642 38.0455C138.46 38.0871 138.233 38.1098 137.96 38.1136C137.513 38.1212 137.097 38.0417 136.71 37.875C136.324 37.7083 136.011 37.4508 135.773 37.1023C135.534 36.7538 135.415 36.3163 135.415 35.7898V27.1818ZM147.182 31.4034L145.642 31.6761C145.578 31.4792 145.475 31.2917 145.335 31.1136C145.199 30.9356 145.013 30.7898 144.778 30.6761C144.544 30.5625 144.25 30.5057 143.898 30.5057C143.417 30.5057 143.015 30.6136 142.693 30.8295C142.371 31.0417 142.21 31.3163 142.21 31.6534C142.21 31.9451 142.318 32.1799 142.534 32.358C142.75 32.536 143.098 32.6818 143.58 32.7955L144.966 33.1136C145.769 33.2992 146.367 33.5852 146.761 33.9716C147.155 34.358 147.352 34.8598 147.352 35.4773C147.352 36 147.201 36.4659 146.898 36.875C146.598 37.2803 146.18 37.5985 145.642 37.8295C145.108 38.0606 144.489 38.1761 143.784 38.1761C142.807 38.1761 142.009 37.9678 141.392 37.5511C140.775 37.1307 140.396 36.5341 140.256 35.7614L141.898 35.5114C142 35.9394 142.21 36.2633 142.528 36.483C142.847 36.6989 143.261 36.8068 143.773 36.8068C144.33 36.8068 144.775 36.6913 145.108 36.4602C145.441 36.2254 145.608 35.9394 145.608 35.6023C145.608 35.3295 145.506 35.1004 145.301 34.9148C145.1 34.7292 144.792 34.589 144.375 34.4943L142.898 34.1705C142.083 33.9848 141.481 33.6894 141.091 33.2841C140.705 32.8788 140.511 32.3655 140.511 31.7443C140.511 31.2292 140.655 30.7784 140.943 30.392C141.231 30.0057 141.629 29.7045 142.136 29.4886C142.644 29.2689 143.225 29.1591 143.881 29.1591C144.824 29.1591 145.566 29.3636 146.108 29.7727C146.65 30.178 147.008 30.7216 147.182 31.4034Z" fill="#1F1F1F"/>
<path d="M103.468 66.6761C102.263 66.6761 101.19 66.4545 100.246 66.0114C99.3089 65.5682 98.5646 64.9574 98.0135 64.179C97.4623 63.4006 97.1754 62.5085 97.1527 61.5028H100.732C100.772 62.179 101.056 62.7273 101.584 63.1477C102.113 63.5682 102.741 63.7784 103.468 63.7784C104.048 63.7784 104.559 63.6506 105.002 63.3949C105.451 63.1335 105.8 62.7727 106.05 62.3125C106.306 61.8466 106.434 61.3125 106.434 60.7102C106.434 60.0966 106.303 59.5568 106.042 59.0909C105.786 58.625 105.431 58.2614 104.977 58C104.522 57.7386 104.002 57.6051 103.417 57.5994C102.905 57.5994 102.408 57.7045 101.925 57.9148C101.448 58.125 101.076 58.4119 100.809 58.7756L97.5277 58.1875L98.3544 48.983H109.025V52H101.397L100.945 56.3722H101.048C101.354 55.9403 101.817 55.5824 102.437 55.2983C103.056 55.0142 103.749 54.8722 104.516 54.8722C105.567 54.8722 106.505 55.1193 107.329 55.6136C108.153 56.108 108.803 56.7869 109.28 57.6506C109.758 58.5085 109.994 59.4972 109.988 60.6165C109.994 61.7926 109.721 62.8381 109.17 63.7528C108.624 64.6619 107.86 65.3778 106.877 65.9006C105.9 66.4176 104.763 66.6761 103.468 66.6761ZM119.405 66.821C117.94 66.8153 116.678 66.4545 115.621 65.7386C114.57 65.0227 113.761 63.9858 113.192 62.6278C112.63 61.2699 112.352 59.6364 112.357 57.7273C112.357 55.8239 112.638 54.2017 113.201 52.8608C113.769 51.5199 114.579 50.5 115.63 49.8011C116.687 49.0966 117.945 48.7443 119.405 48.7443C120.866 48.7443 122.121 49.0966 123.173 49.8011C124.229 50.5057 125.042 51.5284 125.61 52.8693C126.178 54.2045 126.459 55.8239 126.454 57.7273C126.454 59.642 126.17 61.2784 125.602 62.6364C125.039 63.9943 124.232 65.0312 123.181 65.7472C122.13 66.4631 120.871 66.821 119.405 66.821ZM119.405 63.7614C120.405 63.7614 121.204 63.2585 121.8 62.2528C122.397 61.2472 122.692 59.7386 122.687 57.7273C122.687 56.4034 122.55 55.3011 122.278 54.4205C122.011 53.5398 121.63 52.8778 121.136 52.4347C120.647 51.9915 120.07 51.7699 119.405 51.7699C118.411 51.7699 117.616 52.267 117.019 53.2614C116.423 54.2557 116.121 55.7443 116.116 57.7273C116.116 59.0682 116.249 60.1875 116.516 61.0852C116.789 61.9773 117.173 62.6477 117.667 63.0966C118.161 63.5398 118.741 63.7614 119.405 63.7614ZM135.929 66.821C134.463 66.8153 133.202 66.4545 132.145 65.7386C131.094 65.0227 130.284 63.9858 129.716 62.6278C129.153 61.2699 128.875 59.6364 128.881 57.7273C128.881 55.8239 129.162 54.2017 129.724 52.8608C130.293 51.5199 131.102 50.5 132.153 49.8011C133.21 49.0966 134.469 48.7443 135.929 48.7443C137.389 48.7443 138.645 49.0966 139.696 49.8011C140.753 50.5057 141.565 51.5284 142.133 52.8693C142.702 54.2045 142.983 55.8239 142.977 57.7273C142.977 59.642 142.693 61.2784 142.125 62.6364C141.562 63.9943 140.756 65.0312 139.705 65.7472C138.653 66.4631 137.395 66.821 135.929 66.821ZM135.929 63.7614C136.929 63.7614 137.727 63.2585 138.324 62.2528C138.92 61.2472 139.216 59.7386 139.21 57.7273C139.21 56.4034 139.074 55.3011 138.801 54.4205C138.534 53.5398 138.153 52.8778 137.659 52.4347C137.17 51.9915 136.594 51.7699 135.929 51.7699C134.935 51.7699 134.139 52.267 133.543 53.2614C132.946 54.2557 132.645 55.7443 132.639 57.7273C132.639 59.0682 132.773 60.1875 133.04 61.0852C133.312 61.9773 133.696 62.6477 134.19 63.0966C134.685 63.5398 135.264 63.7614 135.929 63.7614ZM150.825 63.7784V51.7102H153.876V63.7784H150.825ZM146.316 59.2699V56.2188H158.384V59.2699H146.316ZM177.424 55.0938H173.691C173.623 54.6108 173.484 54.1818 173.273 53.8068C173.063 53.4261 172.793 53.1023 172.464 52.8352C172.134 52.5682 171.754 52.3636 171.322 52.2216C170.896 52.0795 170.432 52.0085 169.932 52.0085C169.029 52.0085 168.242 52.233 167.572 52.6818C166.901 53.125 166.381 53.7727 166.012 54.625C165.643 55.4716 165.458 56.5 165.458 57.7102C165.458 58.9545 165.643 60 166.012 60.8466C166.387 61.6932 166.91 62.3324 167.58 62.7642C168.251 63.196 169.026 63.4119 169.907 63.4119C170.401 63.4119 170.859 63.3466 171.279 63.2159C171.705 63.0852 172.083 62.8949 172.413 62.6449C172.742 62.3892 173.015 62.0795 173.231 61.7159C173.452 61.3523 173.606 60.9375 173.691 60.4716L177.424 60.4886C177.327 61.2898 177.086 62.0625 176.7 62.8068C176.319 63.5455 175.805 64.2074 175.157 64.7926C174.515 65.3722 173.748 65.8324 172.856 66.1733C171.969 66.5085 170.967 66.6761 169.847 66.6761C168.29 66.6761 166.898 66.3239 165.671 65.6193C164.45 64.9148 163.484 63.8949 162.773 62.5597C162.069 61.2244 161.717 59.608 161.717 57.7102C161.717 55.8068 162.075 54.1875 162.79 52.8523C163.506 51.517 164.478 50.5 165.705 49.8011C166.932 49.0966 168.313 48.7443 169.847 48.7443C170.859 48.7443 171.796 48.8864 172.66 49.1705C173.529 49.4545 174.299 49.8693 174.969 50.4148C175.64 50.9545 176.185 51.6165 176.606 52.4006C177.032 53.1847 177.305 54.0824 177.424 55.0938ZM180.002 66.4375V53.3466H183.522V55.6307H183.658C183.897 54.8182 184.298 54.2045 184.86 53.7898C185.423 53.3693 186.07 53.1591 186.803 53.1591C186.985 53.1591 187.181 53.1705 187.391 53.1932C187.602 53.2159 187.786 53.2472 187.945 53.2869V56.5085C187.775 56.4574 187.539 56.4119 187.238 56.3722C186.937 56.3324 186.661 56.3125 186.411 56.3125C185.877 56.3125 185.4 56.429 184.979 56.6619C184.565 56.8892 184.235 57.2074 183.991 57.6165C183.752 58.0256 183.633 58.4972 183.633 59.0312V66.4375H180.002ZM198.454 66.4375H194.499L200.525 48.983H205.28L211.298 66.4375H207.343L202.971 52.9716H202.834L198.454 66.4375ZM198.207 59.5767H207.548V62.4574H198.207V59.5767ZM224.18 48.983H227.87V60.3182C227.87 61.5909 227.566 62.7045 226.958 63.6591C226.356 64.6136 225.512 65.358 224.427 65.892C223.342 66.4205 222.077 66.6847 220.634 66.6847C219.185 66.6847 217.918 66.4205 216.833 65.892C215.748 65.358 214.904 64.6136 214.302 63.6591C213.7 62.7045 213.398 61.5909 213.398 60.3182V48.983H217.089V60.0028C217.089 60.6676 217.234 61.2585 217.523 61.7756C217.819 62.2926 218.234 62.6989 218.768 62.9943C219.302 63.2898 219.924 63.4375 220.634 63.4375C221.35 63.4375 221.972 63.2898 222.501 62.9943C223.035 62.6989 223.447 62.2926 223.736 61.7756C224.032 61.2585 224.18 60.6676 224.18 60.0028V48.983ZM230.906 48.983H235.457L240.264 60.7102H240.469L245.276 48.983H249.827V66.4375H246.247V55.0767H246.102L241.585 66.3523H239.148L234.631 55.0341H234.486V66.4375H230.906V48.983Z" fill="#3853B2"/>
<ellipse cx="46.7879" cy="49.3846" rx="29.9652" ry="29.64" fill="#3853B2"/>
<g clip-path="url(#clip0_4648_3)">
<path d="M60.766 52.937C59.838 52.937 59.3358 53.4162 59.1027 53.855C58.8694 54.2917 58.879 54.7126 58.879 54.7126V63.0081C58.879 63.0081 58.8694 63.4268 59.1027 63.8656C59.3358 64.3023 59.8475 64.7837 60.7684 64.7837H63.2955C64.2355 64.7837 64.7257 64.3023 64.9589 63.8656C65.1921 63.4268 65.1874 63.0081 65.1874 63.0081V54.7126C65.1874 54.7126 65.1921 54.2917 64.9589 53.855C64.7257 53.4162 64.2379 52.937 63.2932 52.937H60.766ZM60.766 54.1215H63.2955C63.6144 54.1215 63.7525 54.2289 63.8333 54.3834C63.9166 54.5402 63.9286 54.7126 63.9286 54.7126V63.0081C63.9286 63.0081 63.9166 63.1761 63.8333 63.3306C63.7525 63.4873 63.6287 63.5992 63.2955 63.5992H60.766C60.4376 63.5992 60.3091 63.4873 60.2282 63.3306C60.1449 63.1761 60.1402 63.0081 60.1402 63.0081V54.7126C60.1402 54.7126 60.1449 54.5379 60.2282 54.3834C60.3091 54.2289 60.4376 54.1215 60.766 54.1215Z" fill="white"/>
<path d="M50.2439 54.7067C50.086 54.7062 49.9333 54.7563 49.8147 54.8476L45.6448 58.0962C45.3688 58.2868 45.1401 58.5248 44.9729 58.7955C44.8057 59.0662 44.7033 59.364 44.6722 59.6705C44.6411 59.9771 44.6819 60.286 44.7919 60.5783C44.902 60.8706 45.0792 61.1401 45.3125 61.3704C45.5458 61.6007 45.8303 61.7868 46.1487 61.9174C46.4671 62.048 46.8126 62.1203 47.1641 62.1299C47.5155 62.1395 47.8655 62.0862 48.1926 61.9732C48.5196 61.8602 48.8168 61.6899 49.0661 61.4728L50.7292 60.1836C51.3729 59.6842 50.517 58.839 49.8708 59.3384L48.2004 60.6383C48.0184 60.7884 47.7898 60.8879 47.5433 60.9244C47.2968 60.9608 47.0435 60.9326 46.8153 60.8432C46.5827 60.761 46.384 60.6192 46.2452 60.4363C46.1064 60.2535 46.034 60.0382 46.0374 59.8187C46.0353 59.654 46.0744 59.4909 46.1519 59.3408C46.2294 59.1908 46.3434 59.0573 46.4861 58.9499L50.4853 55.8358H58.9592V54.7046L50.2439 54.7067Z" fill="white"/>
<path d="M45.3624 59.7062L36.066 59.7333C35.4896 59.7187 34.8037 59.7876 34.1907 60.1174C33.5753 60.4473 33.101 61.0214 33.1108 61.9316C33.1254 62.9984 34.0375 63.9149 35.2731 64.0881L46.2526 65.7562C46.8655 65.8146 47.3276 65.6956 47.8773 65.5057L56.3272 62.466H58.8787V61.3596H56.1959C56.1104 61.3606 56.0261 61.3762 55.9478 61.4055L47.4152 64.4744C46.9068 64.6414 46.7755 64.6915 46.3888 64.656L35.4823 63.0005C35.1826 62.963 34.9087 62.8345 34.71 62.6384C34.5114 62.4423 34.4014 62.1915 34.3999 61.9316C34.3999 61.4369 34.5799 61.2072 34.8693 61.0506C35.1612 60.894 35.6233 60.8251 36.0271 60.8356L45.3672 60.8105L45.3624 59.7062ZM46.0093 42.0279C43.9605 42.03 41.9963 42.7299 40.548 43.9738C39.0998 45.2176 38.2856 46.9039 38.2843 48.6624C38.2875 50.4199 39.1025 52.1045 40.5506 53.347C41.9987 54.5896 43.9617 55.2885 46.0093 55.2907C48.0569 55.2885 50.02 54.5896 51.468 53.347C52.9162 52.1045 53.7312 50.4199 53.7344 48.6624C53.7331 46.9039 52.919 45.2176 51.4706 43.9738C50.0223 42.7299 48.0582 42.03 46.0093 42.0279ZM46.0093 43.1343C46.8552 43.1332 47.693 43.2754 48.4747 43.5527C49.2564 43.83 49.9667 44.237 50.5648 44.7504C51.1629 45.2638 51.6371 45.8734 51.9602 46.5443C52.2833 47.2153 52.449 47.9343 52.4477 48.6604C52.4486 49.3862 52.2828 50.105 51.9595 50.7757C51.6363 51.4464 51.162 52.0558 50.5639 52.5689C49.9658 53.0821 49.2557 53.4889 48.4741 53.7661C47.6926 54.0433 46.855 54.1854 46.0093 54.1843C45.1639 54.1851 44.3266 54.0428 43.5453 53.7655C42.764 53.4882 42.0541 53.0813 41.4563 52.5682C40.8585 52.0551 40.3845 51.4458 40.0614 50.7752C39.7383 50.1047 39.5724 49.386 39.5734 48.6604C39.5722 47.9345 39.7377 47.2156 40.0607 46.5448C40.3836 45.874 40.8576 45.2645 41.4555 44.7511C42.0533 44.2378 42.7633 43.8307 43.5447 43.5533C44.3262 43.2758 45.1637 43.1335 46.0093 43.1343ZM31.8532 44.2408C32.8019 44.2408 33.3151 43.7919 33.5534 43.3848C33.7918 42.9757 33.7821 42.5832 33.7821 42.5832V34.8484C33.7821 34.8484 33.7918 34.458 33.5534 34.0488C33.3151 33.6417 32.7921 33.1929 31.8508 33.1929H29.2701C28.3094 33.1929 27.8083 33.6417 27.5699 34.0488C27.3316 34.458 27.3364 34.8484 27.3364 34.8484V42.5832C27.3364 42.5832 27.3316 42.9757 27.5699 43.3827C27.8083 43.7919 28.3069 44.2387 29.2726 44.2387L31.8532 44.2408ZM31.8532 43.1343H29.2677C28.9418 43.1343 28.8007 43.0341 28.718 42.8901C28.6329 42.7439 28.6207 42.5832 28.6207 42.5832V34.8484C28.6207 34.8484 28.6329 34.6918 28.718 34.5478C28.8007 34.4016 28.9272 34.2972 29.2677 34.2972H31.8532C32.1889 34.2972 32.3203 34.4016 32.403 34.5478C32.4881 34.6918 32.4929 34.8484 32.4929 34.8484V42.5832C32.4929 42.5832 32.4881 42.746 32.403 42.8901C32.3203 43.0341 32.1889 43.1343 31.8532 43.1343Z" fill="white"/>
<path d="M41.9794 42.078C42.1295 42.078 42.2746 42.0314 42.3874 41.9469L46.3738 38.9231C46.6377 38.7457 46.8563 38.5241 47.0162 38.2722C47.1761 38.0201 47.2739 37.743 47.3037 37.4577C47.3334 37.1723 47.2945 36.8848 47.1892 36.6127C47.084 36.3406 46.9146 36.0898 46.6916 35.8754C46.4686 35.6611 46.1965 35.4879 45.8921 35.3663C45.5877 35.2447 45.2574 35.1774 44.9214 35.1685C44.5854 35.1596 44.2509 35.2092 43.9382 35.3144C43.6255 35.4195 43.3413 35.578 43.1031 35.7801L41.5131 36.9801C40.8976 37.445 41.716 38.2317 42.3337 37.7668L43.9307 36.5569C44.1046 36.4172 44.3232 36.3245 44.5589 36.2906C44.7945 36.2567 45.0366 36.283 45.2548 36.3662C45.4771 36.4427 45.6671 36.5747 45.7999 36.7449C45.9326 36.9151 46.0018 37.1155 45.9985 37.3198C46.0005 37.4731 45.9632 37.6249 45.8891 37.7646C45.815 37.9042 45.7059 38.0284 45.5696 38.1284L41.7462 41.029H33.645V42.078H41.9794Z" fill="white"/>
<path d="M46.8811 37.4674L55.9847 37.4373C56.5492 37.4523 57.2209 37.3813 57.8212 37.0416C58.4238 36.7018 58.8883 36.1104 58.8787 35.1727C58.8704 34.637 58.6538 34.1209 58.2667 33.7148C57.8796 33.3087 57.3467 33.0384 56.7613 32.9512L46.0094 31.2329C45.4091 31.1748 44.9566 31.2953 44.4183 31.491L36.1436 34.62H33.645V35.7598H36.2746C36.3556 35.7598 36.439 35.7426 36.5152 35.7125L44.8708 32.5533C45.3687 32.3813 45.4973 32.3297 45.876 32.3662L56.5564 34.0716C56.8498 34.1102 57.1181 34.2426 57.3126 34.4446C57.5071 34.6467 57.6149 34.905 57.6163 35.1727C57.6163 35.6824 57.44 35.919 57.1566 36.0803C56.8708 36.2416 56.4182 36.3147 56.0228 36.3039L46.8764 36.3276L46.8811 37.4674ZM43.7561 44.8868C42.913 44.8868 42.913 46.0266 43.7561 46.0266H48.8057C49.6489 46.0266 49.6489 44.8868 48.8057 44.8868H43.7561Z" fill="white"/>
<path d="M46.3894 45.0396V47.2947C46.3894 47.2947 46.382 47.7376 46.132 48.1678C45.8846 48.5958 45.4242 48.9813 44.4243 48.9813H43.7685C43.6327 48.9803 43.5001 49.0157 43.3887 49.0824C43.2773 49.1491 43.1927 49.2439 43.1465 49.3537C43.1004 49.4634 43.0949 49.5828 43.131 49.6955C43.167 49.808 43.2427 49.9082 43.3477 49.9822L47.2779 52.7953C47.9487 53.2787 48.7877 52.4119 48.1195 51.9307L45.4242 49.9992C46.3894 49.7905 46.9933 49.2091 47.3027 48.6746C47.7086 47.9762 47.6987 47.2926 47.6987 47.2926V45.0417H46.387L46.3894 45.0396Z" fill="white"/>
<path d="M43.7384 47.0137C42.8971 47.0137 42.8971 48.0009 43.7384 48.0009H48.7866C49.6256 48.0009 49.6256 47.0137 48.7866 47.0137H43.7384Z" fill="white"/>
</g>
<defs>
<clipPath id="clip0_4648_3">
<rect width="37.8507" height="35.5399" fill="white" transform="translate(27.3364 31)"/>
</clipPath>
</defs>
</svg>
