<svg width="233" height="97" viewBox="0 0 233 97" fill="none" xmlns="http://www.w3.org/2000/svg">
<rect width="233" height="97" rx="10" fill="white"/>
<path d="M110.003 27.2727V36H108.793L104.357 29.5994H104.276V36H102.959V27.2727H104.178L108.618 33.6818H108.699V27.2727H110.003ZM114.642 36.1321C113.998 36.1321 113.442 35.9943 112.976 35.7188C112.513 35.4403 112.155 35.0497 111.902 34.5469C111.652 34.0412 111.527 33.4489 111.527 32.7699C111.527 32.0994 111.652 31.5085 111.902 30.9972C112.155 30.4858 112.507 30.0866 112.959 29.7997C113.414 29.5128 113.945 29.3693 114.553 29.3693C114.922 29.3693 115.28 29.4304 115.627 29.5526C115.973 29.6747 116.284 29.8665 116.56 30.1278C116.836 30.3892 117.053 30.7287 117.212 31.1463C117.371 31.5611 117.451 32.0653 117.451 32.6591V33.1108H112.248V32.1562H116.202C116.202 31.821 116.134 31.5241 115.998 31.2656C115.861 31.0043 115.669 30.7983 115.422 30.6477C115.178 30.4972 114.891 30.4219 114.561 30.4219C114.203 30.4219 113.891 30.5099 113.624 30.6861C113.36 30.8594 113.155 31.0866 113.01 31.3679C112.868 31.6463 112.797 31.9489 112.797 32.2756V33.0213C112.797 33.4588 112.874 33.831 113.027 34.1378C113.184 34.4446 113.401 34.679 113.679 34.8409C113.958 35 114.283 35.0795 114.655 35.0795C114.897 35.0795 115.117 35.0455 115.316 34.9773C115.515 34.9062 115.686 34.8011 115.831 34.6619C115.976 34.5227 116.087 34.3509 116.164 34.1463L117.37 34.3636C117.273 34.7187 117.1 35.0298 116.85 35.2969C116.603 35.5611 116.292 35.767 115.917 35.9148C115.544 36.0597 115.12 36.1321 114.642 36.1321ZM120.272 36L118.346 29.4545H119.662L120.945 34.2614H121.009L122.296 29.4545H123.613L124.891 34.2401H124.955L126.229 29.4545H127.546L125.624 36H124.324L122.995 31.2741H122.897L121.567 36H120.272ZM134.688 36.1321C134.054 36.1321 133.509 35.9886 133.051 35.7017C132.597 35.4119 132.248 35.0128 132.003 34.5043C131.759 33.9957 131.637 33.4134 131.637 32.7571C131.637 32.0923 131.762 31.5057 132.012 30.9972C132.262 30.4858 132.614 30.0866 133.069 29.7997C133.523 29.5128 134.059 29.3693 134.675 29.3693C135.172 29.3693 135.615 29.4616 136.005 29.6463C136.394 29.8281 136.708 30.0838 136.946 30.4134C137.188 30.7429 137.331 31.1278 137.377 31.5682H136.137C136.069 31.2614 135.912 30.9972 135.668 30.7756C135.426 30.554 135.103 30.4432 134.696 30.4432C134.341 30.4432 134.03 30.5369 133.763 30.7244C133.499 30.9091 133.293 31.1733 133.145 31.517C132.998 31.858 132.924 32.2614 132.924 32.7273C132.924 33.2045 132.996 33.6165 133.141 33.9631C133.286 34.3097 133.49 34.5781 133.755 34.7685C134.022 34.9588 134.336 35.054 134.696 35.054C134.938 35.054 135.157 35.0099 135.353 34.9219C135.551 34.831 135.718 34.7017 135.851 34.5341C135.988 34.3665 136.083 34.1648 136.137 33.929H137.377C137.331 34.3523 137.194 34.7301 136.963 35.0625C136.733 35.3949 136.425 35.6562 136.039 35.8466C135.655 36.0369 135.205 36.1321 134.688 36.1321ZM140.013 27.2727V36H138.739V27.2727H140.013ZM141.728 36V29.4545H143.002V36H141.728ZM142.371 28.4446C142.15 28.4446 141.959 28.3707 141.8 28.223C141.644 28.0724 141.566 27.8935 141.566 27.6861C141.566 27.4759 141.644 27.2969 141.8 27.1491C141.959 26.9986 142.15 26.9233 142.371 26.9233C142.593 26.9233 142.782 26.9986 142.938 27.1491C143.097 27.2969 143.176 27.4759 143.176 27.6861C143.176 27.8935 143.097 28.0724 142.938 28.223C142.782 28.3707 142.593 28.4446 142.371 28.4446ZM147.537 36.1321C146.892 36.1321 146.337 35.9943 145.871 35.7188C145.408 35.4403 145.05 35.0497 144.797 34.5469C144.547 34.0412 144.422 33.4489 144.422 32.7699C144.422 32.0994 144.547 31.5085 144.797 30.9972C145.05 30.4858 145.402 30.0866 145.854 29.7997C146.308 29.5128 146.839 29.3693 147.447 29.3693C147.817 29.3693 148.175 29.4304 148.521 29.5526C148.868 29.6747 149.179 29.8665 149.455 30.1278C149.73 30.3892 149.947 30.7287 150.107 31.1463C150.266 31.5611 150.345 32.0653 150.345 32.6591V33.1108H145.142V32.1562H149.097C149.097 31.821 149.028 31.5241 148.892 31.2656C148.756 31.0043 148.564 30.7983 148.317 30.6477C148.072 30.4972 147.786 30.4219 147.456 30.4219C147.098 30.4219 146.786 30.5099 146.518 30.6861C146.254 30.8594 146.05 31.0866 145.905 31.3679C145.763 31.6463 145.692 31.9489 145.692 32.2756V33.0213C145.692 33.4588 145.768 33.831 145.922 34.1378C146.078 34.4446 146.295 34.679 146.574 34.8409C146.852 35 147.178 35.0795 147.55 35.0795C147.791 35.0795 148.011 35.0455 148.21 34.9773C148.409 34.9062 148.581 34.8011 148.726 34.6619C148.871 34.5227 148.982 34.3509 149.058 34.1463L150.264 34.3636C150.168 34.7187 149.994 35.0298 149.744 35.2969C149.497 35.5611 149.186 35.767 148.811 35.9148C148.439 36.0597 148.014 36.1321 147.537 36.1321ZM153.033 32.1136V36H151.759V29.4545H152.982V30.5199H153.063C153.213 30.1733 153.449 29.8949 153.77 29.6847C154.094 29.4744 154.502 29.3693 154.993 29.3693C155.439 29.3693 155.83 29.4631 156.165 29.6506C156.5 29.8352 156.76 30.1108 156.945 30.4773C157.13 30.8437 157.222 31.2969 157.222 31.8366V36H155.948V31.9901C155.948 31.5156 155.824 31.1449 155.577 30.8778C155.33 30.608 154.99 30.473 154.559 30.473C154.263 30.473 154 30.5369 153.77 30.6648C153.543 30.7926 153.363 30.9801 153.229 31.2273C153.098 31.4716 153.033 31.767 153.033 32.1136ZM161.986 29.4545V30.4773H158.411V29.4545H161.986ZM159.37 27.8864H160.644V34.0781C160.644 34.3253 160.681 34.5114 160.755 34.6364C160.828 34.7585 160.924 34.8423 161.04 34.8878C161.159 34.9304 161.289 34.9517 161.428 34.9517C161.53 34.9517 161.62 34.9446 161.696 34.9304C161.773 34.9162 161.833 34.9048 161.875 34.8963L162.105 35.9489C162.032 35.9773 161.926 36.0057 161.79 36.0341C161.654 36.0653 161.483 36.0824 161.279 36.0852C160.944 36.0909 160.631 36.0312 160.341 35.9062C160.051 35.7812 159.817 35.5881 159.638 35.3267C159.459 35.0653 159.37 34.7372 159.37 34.3423V27.8864ZM168.195 31.0526L167.04 31.2571C166.992 31.1094 166.915 30.9687 166.81 30.8352C166.708 30.7017 166.569 30.5923 166.392 30.5071C166.216 30.4219 165.996 30.3793 165.732 30.3793C165.371 30.3793 165.07 30.4602 164.828 30.6222C164.587 30.7812 164.466 30.9872 164.466 31.2401C164.466 31.4588 164.547 31.6349 164.709 31.7685C164.871 31.902 165.132 32.0114 165.493 32.0966L166.533 32.3352C167.135 32.4744 167.584 32.6889 167.88 32.9787C168.175 33.2685 168.323 33.6449 168.323 34.108C168.323 34.5 168.209 34.8494 167.982 35.1562C167.757 35.4602 167.444 35.6989 167.04 35.8722C166.64 36.0455 166.175 36.1321 165.647 36.1321C164.914 36.1321 164.316 35.9759 163.853 35.6634C163.39 35.348 163.105 34.9006 163 34.321L164.232 34.1335C164.309 34.4545 164.466 34.6974 164.705 34.8622C164.944 35.0241 165.255 35.1051 165.638 35.1051C166.056 35.1051 166.39 35.0185 166.64 34.8452C166.89 34.669 167.015 34.4545 167.015 34.2017C167.015 33.9972 166.938 33.8253 166.784 33.6861C166.634 33.5469 166.402 33.4418 166.09 33.3707L164.982 33.1278C164.371 32.9886 163.919 32.767 163.627 32.4631C163.337 32.1591 163.192 31.7741 163.192 31.3082C163.192 30.9219 163.3 30.5838 163.516 30.294C163.732 30.0043 164.03 29.7784 164.411 29.6165C164.792 29.4517 165.228 29.3693 165.719 29.3693C166.426 29.3693 166.983 29.5227 167.39 29.8295C167.796 30.1335 168.064 30.5412 168.195 31.0526Z" fill="#1F1F1F"/>
<path d="M109.866 68.2386C108.594 68.2386 107.46 68.0199 106.466 67.5824C105.477 67.1392 104.696 66.5312 104.122 65.7585C103.554 64.9801 103.261 64.0824 103.244 63.0653H106.96C106.983 63.4915 107.122 63.8665 107.378 64.1903C107.639 64.5085 107.986 64.7557 108.418 64.9318C108.849 65.108 109.335 65.196 109.875 65.196C110.438 65.196 110.935 65.0966 111.366 64.8977C111.798 64.6989 112.136 64.4233 112.381 64.071C112.625 63.7187 112.747 63.3125 112.747 62.8523C112.747 62.3864 112.616 61.9744 112.355 61.6165C112.099 61.2528 111.73 60.9687 111.247 60.7642C110.77 60.5597 110.202 60.4574 109.543 60.4574H107.915V57.7472H109.543C110.099 57.7472 110.591 57.6506 111.017 57.4574C111.449 57.2642 111.784 56.9972 112.023 56.6562C112.261 56.3097 112.381 55.9062 112.381 55.446C112.381 55.0085 112.276 54.625 112.065 54.2955C111.861 53.9602 111.571 53.6989 111.196 53.5114C110.827 53.3239 110.395 53.2301 109.901 53.2301C109.401 53.2301 108.943 53.321 108.528 53.5028C108.114 53.679 107.781 53.9318 107.531 54.2614C107.281 54.5909 107.148 54.9773 107.131 55.4205H103.594C103.611 54.4148 103.898 53.5284 104.455 52.7614C105.011 51.9943 105.761 51.3949 106.705 50.9631C107.653 50.5256 108.724 50.3068 109.918 50.3068C111.122 50.3068 112.176 50.5256 113.08 50.9631C113.983 51.4006 114.685 51.9915 115.185 52.7358C115.69 53.4744 115.94 54.304 115.935 55.2244C115.94 56.2017 115.636 57.017 115.023 57.6705C114.415 58.3239 113.622 58.7386 112.645 58.9148V59.0511C113.929 59.2159 114.906 59.6619 115.577 60.3892C116.253 61.1108 116.588 62.0142 116.582 63.0994C116.588 64.0938 116.301 64.9773 115.722 65.75C115.148 66.5227 114.355 67.1307 113.344 67.5739C112.332 68.017 111.173 68.2386 109.866 68.2386ZM119.235 68V65.3409L125.448 59.5881C125.977 59.0767 126.42 58.6165 126.778 58.2074C127.141 57.7983 127.417 57.3977 127.604 57.0057C127.792 56.608 127.886 56.179 127.886 55.7188C127.886 55.2074 127.769 54.767 127.536 54.3977C127.303 54.0227 126.985 53.7358 126.582 53.5369C126.178 53.3324 125.721 53.2301 125.21 53.2301C124.675 53.2301 124.21 53.3381 123.812 53.554C123.414 53.7699 123.107 54.0795 122.891 54.483C122.675 54.8864 122.567 55.3665 122.567 55.9233H119.065C119.065 54.7812 119.323 53.7898 119.84 52.9489C120.357 52.108 121.082 51.4574 122.013 50.9972C122.945 50.5369 124.019 50.3068 125.235 50.3068C126.485 50.3068 127.573 50.5284 128.499 50.9716C129.431 51.4091 130.156 52.017 130.673 52.7955C131.19 53.5739 131.448 54.4659 131.448 55.4716C131.448 56.1307 131.317 56.7812 131.056 57.4233C130.8 58.0653 130.343 58.7784 129.684 59.5625C129.025 60.3409 128.096 61.2756 126.897 62.3665L124.349 64.8636V64.983H131.678V68H119.235ZM141.946 50.5455V68H138.256V54.0483H138.153L134.156 56.554V53.2812L138.477 50.5455H141.946Z" fill="#1B1464"/>
<circle cx="45" cy="48" r="29" fill="#0666E5"/>
<path fill-rule="evenodd" clip-rule="evenodd" d="M53.0554 53.4168V58.4723C53.0554 59.8677 51.9244 61.0001 50.5277 61.0001H38.9721C37.5753 61.0001 36.4443 59.8677 36.4443 58.4723V53.4168C36.4443 51.5968 37.1666 49.8519 38.4536 48.5649C39.7406 47.2779 41.4854 46.5557 43.3054 46.5557H46.1943C48.0143 46.5557 49.7592 47.2779 51.0462 48.5649C52.3332 49.8519 53.0554 51.5968 53.0554 53.4168Z" fill="white"/>
<path d="M44.7502 45.8333C47.7417 45.8333 50.1668 43.4082 50.1668 40.4167C50.1668 37.4251 47.7417 35 44.7502 35C41.7586 35 39.3335 37.4251 39.3335 40.4167C39.3335 43.4082 41.7586 45.8333 44.7502 45.8333Z" fill="white"/>
<path d="M55.5833 45.8336C57.5776 45.8336 59.1944 44.2168 59.1944 42.2224C59.1944 40.2281 57.5776 38.6113 55.5833 38.6113C53.5889 38.6113 51.9722 40.2281 51.9722 42.2224C51.9722 44.2168 53.5889 45.8336 55.5833 45.8336Z" fill="white"/>
<path d="M33.9168 45.8336C35.9111 45.8336 37.5279 44.2168 37.5279 42.2224C37.5279 40.2281 35.9111 38.6113 33.9168 38.6113C31.9224 38.6113 30.3057 40.2281 30.3057 42.2224C30.3057 44.2168 31.9224 45.8336 33.9168 45.8336Z" fill="white"/>
<path fill-rule="evenodd" clip-rule="evenodd" d="M35.0158 58.8334H31.7499C31.0797 58.8334 30.4369 58.5677 29.9632 58.0924C29.4879 57.6187 29.2222 56.9759 29.2222 56.3057V50.5279C29.2222 49.4749 29.6411 48.4638 30.3849 47.7184C31.1303 46.9746 32.1414 46.5557 33.1944 46.5557H34.6388C35.6471 46.5557 36.6163 46.9399 37.3515 47.626C35.8449 49.1759 34.9999 51.253 34.9999 53.4168V58.4723C34.9999 58.5937 35.0057 58.715 35.0158 58.8334Z" fill="white"/>
<path fill-rule="evenodd" clip-rule="evenodd" d="M52.1484 47.626C52.8837 46.9399 53.8529 46.5557 54.8611 46.5557H56.3055C57.3585 46.5557 58.3697 46.9746 59.115 47.7184C59.8589 48.4638 60.2778 49.4749 60.2778 50.5279V56.3057C60.2778 56.9759 60.012 57.6187 59.5368 58.0924C59.063 58.5677 58.4202 58.8334 57.75 58.8334H54.4841C54.4942 58.715 54.5 58.5937 54.5 58.4723V53.4168C54.5 51.253 53.655 49.1759 52.1484 47.626Z" fill="white"/>
</svg>
