<svg width="264" height="97" viewBox="0 0 264 97" fill="none" xmlns="http://www.w3.org/2000/svg">
<rect width="264" height="97" rx="8" fill="white"/>
<path d="M91.7585 35V26.2727H97.6392V27.794H93.6037V29.8736H97.3366V31.3949H93.6037V33.4787H97.6562V35H91.7585ZM100.589 28.4545L101.791 30.7429L103.022 28.4545H104.885L102.988 31.7273L104.936 35H103.082L101.791 32.7372L100.521 35H98.646L100.589 31.7273L98.7141 28.4545H100.589ZM105.963 37.4545V28.4545H107.752V29.554H107.833C107.913 29.3778 108.028 29.1989 108.179 29.017C108.332 28.8324 108.531 28.679 108.775 28.5568C109.022 28.4318 109.329 28.3693 109.696 28.3693C110.173 28.3693 110.613 28.4943 111.017 28.7443C111.42 28.9915 111.743 29.3651 111.984 29.8651C112.225 30.3622 112.346 30.9858 112.346 31.7358C112.346 32.4659 112.228 33.0824 111.993 33.5852C111.76 34.0852 111.441 34.4645 111.038 34.723C110.637 34.9787 110.189 35.1065 109.691 35.1065C109.339 35.1065 109.039 35.0483 108.792 34.9318C108.548 34.8153 108.348 34.669 108.191 34.4929C108.035 34.3139 107.916 34.1335 107.833 33.9517H107.778V37.4545H105.963ZM107.74 31.7273C107.74 32.1165 107.794 32.456 107.902 32.7457C108.01 33.0355 108.166 33.2614 108.37 33.4233C108.575 33.5824 108.824 33.6619 109.116 33.6619C109.412 33.6619 109.662 33.581 109.866 33.419C110.071 33.2543 110.225 33.027 110.331 32.7372C110.439 32.4446 110.493 32.108 110.493 31.7273C110.493 31.3494 110.44 31.017 110.335 30.7301C110.23 30.4432 110.075 30.2187 109.87 30.0568C109.666 29.8949 109.414 29.8139 109.116 29.8139C108.821 29.8139 108.571 29.892 108.366 30.0483C108.164 30.2045 108.01 30.4261 107.902 30.7131C107.794 31 107.74 31.3381 107.74 31.7273ZM116.539 35.1278C115.866 35.1278 115.287 34.9915 114.801 34.7188C114.318 34.4432 113.946 34.054 113.684 33.5511C113.423 33.0455 113.292 32.4474 113.292 31.7571C113.292 31.0838 113.423 30.4929 113.684 29.9844C113.946 29.4759 114.314 29.0795 114.788 28.7955C115.265 28.5114 115.825 28.3693 116.467 28.3693C116.899 28.3693 117.301 28.4389 117.673 28.5781C118.048 28.7145 118.375 28.9205 118.653 29.196C118.934 29.4716 119.153 29.8182 119.309 30.2358C119.466 30.6506 119.544 31.1364 119.544 31.6932V32.1918H114.017V31.0668H117.835C117.835 30.8054 117.778 30.5739 117.664 30.3722C117.551 30.1705 117.393 30.0128 117.191 29.8991C116.993 29.7827 116.761 29.7244 116.497 29.7244C116.221 29.7244 115.977 29.7884 115.764 29.9162C115.554 30.0412 115.389 30.2102 115.27 30.4233C115.15 30.6335 115.089 30.8679 115.086 31.1264V32.196C115.086 32.5199 115.146 32.7997 115.265 33.0355C115.387 33.2713 115.559 33.4531 115.781 33.581C116.002 33.7088 116.265 33.7727 116.569 33.7727C116.771 33.7727 116.956 33.7443 117.123 33.6875C117.291 33.6307 117.434 33.5455 117.554 33.4318C117.673 33.3182 117.764 33.179 117.826 33.0142L119.505 33.125C119.42 33.5284 119.245 33.8807 118.981 34.1818C118.72 34.4801 118.382 34.7131 117.967 34.8807C117.555 35.0455 117.079 35.1278 116.539 35.1278ZM120.728 35V28.4545H122.488V29.5966H122.556C122.676 29.1903 122.876 28.8835 123.157 28.6761C123.439 28.4659 123.762 28.3608 124.129 28.3608C124.22 28.3608 124.318 28.3665 124.423 28.3778C124.528 28.3892 124.62 28.4048 124.7 28.4247V30.0355C124.615 30.0099 124.497 29.9872 124.346 29.9673C124.196 29.9474 124.058 29.9375 123.933 29.9375C123.666 29.9375 123.427 29.9957 123.217 30.1122C123.01 30.2259 122.845 30.3849 122.723 30.5895C122.603 30.794 122.544 31.0298 122.544 31.2969V35H120.728ZM125.638 35V28.4545H127.454V35H125.638ZM126.55 27.6108C126.281 27.6108 126.049 27.5213 125.856 27.3423C125.665 27.1605 125.57 26.9432 125.57 26.6903C125.57 26.4403 125.665 26.2259 125.856 26.0469C126.049 25.8651 126.281 25.7741 126.55 25.7741C126.82 25.7741 127.05 25.8651 127.241 26.0469C127.434 26.2259 127.531 26.4403 127.531 26.6903C127.531 26.9432 127.434 27.1605 127.241 27.3423C127.05 27.5213 126.82 27.6108 126.55 27.6108ZM131.891 35.1278C131.218 35.1278 130.638 34.9915 130.152 34.7188C129.669 34.4432 129.297 34.054 129.036 33.5511C128.775 33.0455 128.644 32.4474 128.644 31.7571C128.644 31.0838 128.775 30.4929 129.036 29.9844C129.297 29.4759 129.665 29.0795 130.14 28.7955C130.617 28.5114 131.176 28.3693 131.819 28.3693C132.25 28.3693 132.652 28.4389 133.025 28.5781C133.4 28.7145 133.726 28.9205 134.005 29.196C134.286 29.4716 134.505 29.8182 134.661 30.2358C134.817 30.6506 134.895 31.1364 134.895 31.6932V32.1918H129.368V31.0668H133.186C133.186 30.8054 133.13 30.5739 133.016 30.3722C132.902 30.1705 132.745 30.0128 132.543 29.8991C132.344 29.7827 132.113 29.7244 131.848 29.7244C131.573 29.7244 131.328 29.7884 131.115 29.9162C130.905 30.0412 130.74 30.2102 130.621 30.4233C130.502 30.6335 130.441 30.8679 130.438 31.1264V32.196C130.438 32.5199 130.498 32.7997 130.617 33.0355C130.739 33.2713 130.911 33.4531 131.132 33.581C131.354 33.7088 131.617 33.7727 131.921 33.7727C132.123 33.7727 132.307 33.7443 132.475 33.6875C132.642 33.6307 132.786 33.5455 132.905 33.4318C133.025 33.3182 133.115 33.179 133.178 33.0142L134.857 33.125C134.772 33.5284 134.597 33.8807 134.333 34.1818C134.071 34.4801 133.733 34.7131 133.319 34.8807C132.907 35.0455 132.431 35.1278 131.891 35.1278ZM137.895 31.2159V35H136.08V28.4545H137.81V29.6094H137.887C138.032 29.2287 138.275 28.9276 138.615 28.706C138.956 28.4815 139.37 28.3693 139.855 28.3693C140.31 28.3693 140.706 28.4688 141.044 28.6676C141.382 28.8665 141.645 29.1506 141.833 29.5199C142.02 29.8864 142.114 30.3239 142.114 30.8324V35H140.299V31.1562C140.301 30.7557 140.199 30.4432 139.992 30.2188C139.784 29.9915 139.499 29.8778 139.135 29.8778C138.891 29.8778 138.675 29.9304 138.488 30.0355C138.303 30.1406 138.158 30.294 138.053 30.4957C137.951 30.6946 137.898 30.9347 137.895 31.2159ZM146.502 35.1278C145.832 35.1278 145.255 34.9858 144.772 34.7017C144.292 34.4148 143.923 34.017 143.664 33.5085C143.408 33 143.281 32.4148 143.281 31.7528C143.281 31.0824 143.41 30.4943 143.668 29.9886C143.93 29.4801 144.3 29.0838 144.781 28.7997C145.261 28.5128 145.832 28.3693 146.494 28.3693C147.065 28.3693 147.565 28.473 147.994 28.6804C148.423 28.8878 148.762 29.179 149.012 29.554C149.262 29.929 149.4 30.3693 149.425 30.875H147.712C147.664 30.5483 147.536 30.2855 147.329 30.0866C147.124 29.8849 146.856 29.7841 146.523 29.7841C146.242 29.7841 145.996 29.8608 145.786 30.0142C145.579 30.1648 145.417 30.3849 145.3 30.6747C145.184 30.9645 145.126 31.3153 145.126 31.7273C145.126 32.1449 145.183 32.5 145.296 32.7926C145.413 33.0852 145.576 33.3082 145.786 33.4616C145.996 33.6151 146.242 33.6918 146.523 33.6918C146.731 33.6918 146.917 33.6491 147.082 33.5639C147.249 33.4787 147.387 33.3551 147.495 33.1932C147.606 33.0284 147.678 32.831 147.712 32.6009H149.425C149.397 33.1009 149.261 33.5412 149.016 33.9219C148.775 34.2997 148.441 34.5952 148.015 34.8082C147.589 35.0213 147.085 35.1278 146.502 35.1278ZM153.571 35.1278C152.897 35.1278 152.318 34.9915 151.832 34.7188C151.349 34.4432 150.977 34.054 150.716 33.5511C150.454 33.0455 150.324 32.4474 150.324 31.7571C150.324 31.0838 150.454 30.4929 150.716 29.9844C150.977 29.4759 151.345 29.0795 151.819 28.7955C152.297 28.5114 152.856 28.3693 153.498 28.3693C153.93 28.3693 154.332 28.4389 154.704 28.5781C155.079 28.7145 155.406 28.9205 155.684 29.196C155.966 29.4716 156.184 29.8182 156.341 30.2358C156.497 30.6506 156.575 31.1364 156.575 31.6932V32.1918H151.048V31.0668H154.866C154.866 30.8054 154.809 30.5739 154.696 30.3722C154.582 30.1705 154.424 30.0128 154.223 29.8991C154.024 29.7827 153.792 29.7244 153.528 29.7244C153.252 29.7244 153.008 29.7884 152.795 29.9162C152.585 30.0412 152.42 30.2102 152.301 30.4233C152.181 30.6335 152.12 30.8679 152.118 31.1264V32.196C152.118 32.5199 152.177 32.7997 152.297 33.0355C152.419 33.2713 152.591 33.4531 152.812 33.581C153.034 33.7088 153.297 33.7727 153.6 33.7727C153.802 33.7727 153.987 33.7443 154.154 33.6875C154.322 33.6307 154.466 33.5455 154.585 33.4318C154.704 33.3182 154.795 33.179 154.858 33.0142L156.537 33.125C156.451 33.5284 156.277 33.8807 156.012 34.1818C155.751 34.4801 155.413 34.7131 154.998 34.8807C154.586 35.0455 154.11 35.1278 153.571 35.1278Z" fill="#1B1464"/>
<path d="M100.009 49.5455V67H96.3182V53.0483H96.2159L92.2188 55.554V52.2812L96.5398 49.5455H100.009ZM111.001 67.3835C109.535 67.3778 108.273 67.017 107.217 66.3011C106.165 65.5852 105.356 64.5483 104.788 63.1903C104.225 61.8324 103.947 60.1989 103.952 58.2898C103.952 56.3864 104.234 54.7642 104.796 53.4233C105.364 52.0824 106.174 51.0625 107.225 50.3636C108.282 49.6591 109.54 49.3068 111.001 49.3068C112.461 49.3068 113.717 49.6591 114.768 50.3636C115.825 51.0682 116.637 52.0909 117.205 53.4318C117.773 54.767 118.055 56.3864 118.049 58.2898C118.049 60.2045 117.765 61.8409 117.197 63.1989C116.634 64.5568 115.827 65.5937 114.776 66.3097C113.725 67.0256 112.467 67.3835 111.001 67.3835ZM111.001 64.3239C112.001 64.3239 112.799 63.821 113.396 62.8153C113.992 61.8097 114.288 60.3011 114.282 58.2898C114.282 56.9659 114.146 55.8636 113.873 54.983C113.606 54.1023 113.225 53.4403 112.731 52.9972C112.242 52.554 111.665 52.3324 111.001 52.3324C110.006 52.3324 109.211 52.8295 108.614 53.8239C108.018 54.8182 107.717 56.3068 107.711 58.2898C107.711 59.6307 107.844 60.75 108.112 61.6477C108.384 62.5398 108.768 63.2102 109.262 63.6591C109.756 64.1023 110.336 64.3239 111.001 64.3239ZM125.896 64.3409V52.2727H128.947V64.3409H125.896ZM121.388 59.8324V56.7812H133.456V59.8324H121.388ZM141.627 49.5455H145.761L149.741 57.0625H149.911L153.891 49.5455H158.025L151.658 60.8295V67H147.994V60.8295L141.627 49.5455ZM163.196 67.2557C161.849 67.2557 160.69 66.983 159.719 66.4375C158.753 65.8864 158.009 65.108 157.486 64.1023C156.963 63.0909 156.702 61.8949 156.702 60.5142C156.702 59.1676 156.963 57.9858 157.486 56.9688C158.009 55.9517 158.744 55.1591 159.693 54.5909C160.648 54.0227 161.767 53.7386 163.051 53.7386C163.915 53.7386 164.719 53.8778 165.463 54.1562C166.213 54.429 166.866 54.8409 167.423 55.392C167.986 55.9432 168.423 56.6364 168.736 57.4716C169.048 58.3011 169.205 59.2727 169.205 60.3864V61.3835H158.151V59.1335H165.787C165.787 58.6108 165.673 58.1477 165.446 57.7443C165.219 57.3409 164.903 57.0256 164.5 56.7983C164.102 56.5653 163.639 56.4489 163.111 56.4489C162.56 56.4489 162.071 56.5767 161.645 56.8324C161.224 57.0824 160.895 57.4205 160.656 57.8466C160.418 58.267 160.295 58.7358 160.29 59.2528V61.392C160.29 62.0398 160.409 62.5994 160.648 63.071C160.892 63.5426 161.236 63.9062 161.679 64.1619C162.122 64.4176 162.648 64.5455 163.256 64.5455C163.659 64.5455 164.028 64.4886 164.364 64.375C164.699 64.2614 164.986 64.0909 165.224 63.8636C165.463 63.6364 165.645 63.358 165.77 63.0284L169.128 63.25C168.957 64.0568 168.608 64.7614 168.08 65.3636C167.557 65.9602 166.881 66.4261 166.051 66.7614C165.227 67.0909 164.276 67.2557 163.196 67.2557ZM175.307 67.2472C174.472 67.2472 173.727 67.1023 173.074 66.8125C172.42 66.517 171.903 66.0824 171.523 65.5085C171.148 64.929 170.96 64.2074 170.96 63.3438C170.96 62.6165 171.094 62.0057 171.361 61.5114C171.628 61.017 171.991 60.6193 172.452 60.3182C172.912 60.017 173.435 59.7898 174.02 59.6364C174.611 59.483 175.23 59.375 175.878 59.3125C176.639 59.233 177.253 59.1591 177.719 59.0909C178.185 59.017 178.523 58.9091 178.733 58.767C178.943 58.625 179.048 58.4148 179.048 58.1364V58.0852C179.048 57.5455 178.878 57.1278 178.537 56.8324C178.202 56.5369 177.724 56.3892 177.105 56.3892C176.452 56.3892 175.932 56.5341 175.545 56.8239C175.159 57.108 174.903 57.4659 174.778 57.8977L171.42 57.625C171.591 56.8295 171.926 56.142 172.426 55.5625C172.926 54.9773 173.571 54.5284 174.361 54.2159C175.156 53.8977 176.077 53.7386 177.122 53.7386C177.849 53.7386 178.545 53.8239 179.21 53.9943C179.881 54.1648 180.474 54.429 180.991 54.7869C181.514 55.1449 181.926 55.6051 182.227 56.1676C182.528 56.7244 182.679 57.392 182.679 58.1705V67H179.236V65.1847H179.134C178.923 65.5938 178.642 65.9545 178.29 66.267C177.938 66.5739 177.514 66.8153 177.02 66.9915C176.526 67.1619 175.955 67.2472 175.307 67.2472ZM176.347 64.7415C176.881 64.7415 177.352 64.6364 177.761 64.4261C178.17 64.2102 178.491 63.9205 178.724 63.5568C178.957 63.1932 179.074 62.7812 179.074 62.321V60.9318C178.96 61.0057 178.804 61.0739 178.605 61.1364C178.412 61.1932 178.193 61.2472 177.949 61.2983C177.705 61.3437 177.46 61.3864 177.216 61.4261C176.972 61.4602 176.75 61.4915 176.551 61.5199C176.125 61.5824 175.753 61.6818 175.435 61.8182C175.116 61.9545 174.869 62.1392 174.693 62.3722C174.517 62.5994 174.429 62.8835 174.429 63.2244C174.429 63.7188 174.608 64.0966 174.966 64.358C175.33 64.6136 175.79 64.7415 176.347 64.7415ZM185.496 67V53.9091H189.016V56.1932H189.152C189.391 55.3807 189.791 54.767 190.354 54.3523C190.916 53.9318 191.564 53.7216 192.297 53.7216C192.479 53.7216 192.675 53.733 192.885 53.7557C193.095 53.7784 193.28 53.8097 193.439 53.8494V57.071C193.268 57.0199 193.033 56.9744 192.732 56.9347C192.43 56.8949 192.155 56.875 191.905 56.875C191.371 56.875 190.893 56.9915 190.473 57.2244C190.058 57.4517 189.729 57.7699 189.484 58.179C189.246 58.5881 189.126 59.0597 189.126 59.5938V67H185.496Z" fill="#0666E5"/>
<ellipse cx="44.5" cy="48" rx="28.5" ry="28" fill="#1B1464"/>
<path fill-rule="evenodd" clip-rule="evenodd" d="M30.804 60.8426V61.0548C30.804 61.575 30.2611 62 29.5963 62H27.2077C26.5454 62 26 61.575 26 61.0548V52.9806C26 52.4604 26.5454 52.0354 27.2077 52.0354H29.2404C31.0575 48.1904 35.2521 45.2478 40.427 44.3024C37.6642 43.2523 35.7524 41.0319 35.7524 38.4739C35.7524 34.9091 39.4654 32 44.0202 32C48.5793 32 52.292 34.9092 52.292 38.4739C52.292 41.032 50.3802 43.2525 47.6157 44.3026C50.9636 44.914 53.9007 46.3607 56.049 48.3467C56.1468 48.386 56.2416 48.4323 56.3327 48.4857C56.8662 48.7978 57.0621 48.9483 57.3012 49.0163C57.5401 49.0844 57.8135 49.0677 58.4782 49.0969C59.3459 49.1351 60.0492 49.5966 60.2452 50.2575C60.3975 50.7649 60.4241 50.9787 60.5513 51.1511C60.6786 51.3236 60.9019 51.4487 61.3862 51.8053C62.0182 52.2684 62.1796 52.9766 61.7889 53.5837C61.4884 54.0488 61.3322 54.2264 61.2879 54.4224C61.2437 54.6182 61.3126 54.826 61.3921 55.3431L61.3925 55.3449C61.49 55.9999 61.061 56.6055 60.305 56.8831L61.5885 59.2285C61.6791 59.3939 61.6448 59.5851 61.4994 59.7247C61.3541 59.8643 61.1216 59.9291 60.8963 59.893L59.192 59.6201L58.2743 60.7765C58.1525 60.93 57.9313 61.0176 57.701 61.0035C57.4707 60.9895 57.2696 60.8761 57.1797 60.7095L56.0439 58.6061C55.6031 58.4967 55.3924 58.4338 55.1785 58.4338C55.0593 58.4338 54.941 58.4534 54.7835 58.4897L53.1261 61.2491C53.0282 61.4119 52.8231 61.5188 52.5934 61.5266C52.3638 61.5344 52.1476 61.4419 52.032 61.2863L51.1583 60.1095L49.4451 60.3444C49.2183 60.3755 48.9883 60.3054 48.8481 60.1625C48.7079 60.0195 48.6807 59.8275 48.7776 59.6641L50.365 56.987C50.2905 56.9629 50.2095 56.9364 50.1214 56.9068C49.3926 56.6642 48.9459 56.1241 48.952 55.519H45.563C45.5659 55.5537 45.5674 55.5887 45.5674 55.624C45.5674 56.1581 45.2272 56.6327 44.7079 56.9215C44.9429 57.181 45.0814 57.4973 45.0814 57.8376C45.0814 58.6132 44.364 59.2639 43.4224 59.4021C43.5369 59.6008 43.6006 59.8209 43.6006 60.0522C43.6006 60.9264 42.6869 61.6428 41.5682 61.6428H35.3529C33.3123 61.6428 32.0778 61.1966 30.804 60.8426ZM30.4337 52.3008C30.6521 52.4657 30.7919 52.694 30.8033 52.947C31.2222 52.9223 31.509 52.7755 31.7143 52.5435C32.6743 51.4563 32.5888 51.4769 33.8452 50.8346C35.5354 49.9694 35.4712 49.6152 36.1146 47.4264C36.1518 47.3002 36.2521 47.1908 36.393 47.1229C36.534 47.055 36.7039 47.0341 36.8647 47.065C38.2834 47.3377 38.9104 48.1735 39.0506 49.1621C39.178 50.0613 38.8666 51.0856 38.4656 51.8196H42.7613C43.8799 51.8196 44.795 52.5349 44.795 53.4103C44.795 53.7081 44.6887 53.9877 44.5044 54.2268C44.7028 54.3117 44.8814 54.4216 45.033 54.5512H49.0836C49.0835 54.5057 49.0792 54.4636 49.0698 54.422C49.0259 54.2261 48.8706 54.0493 48.5702 53.5843C48.1796 52.9774 48.338 52.2689 48.9721 51.8054C49.4568 51.4487 49.6799 51.3238 49.8068 51.1514C49.9338 50.979 49.96 50.7652 50.1115 50.2576C50.3096 49.5968 51.013 49.1351 51.8803 49.0969C52.5449 49.0677 52.8185 49.0844 53.0575 49.0163C53.2966 48.9483 53.4924 48.7978 54.0259 48.4857C54.1309 48.4242 54.2408 48.3721 54.3544 48.3292C51.7222 46.2417 48.0648 44.9479 44.0202 44.9479C37.8072 44.9479 32.5057 48.0041 30.4337 52.3008ZM30.804 53.9164V59.822C32.1056 60.1664 33.2849 60.6751 35.3529 60.6751H41.5682C42.0063 60.6751 42.3641 60.3945 42.3641 60.0522C42.3641 59.7093 42.0063 59.4292 41.5682 59.4292H39.0714C38.7301 59.4292 38.4532 59.2124 38.4532 58.9453C38.4532 58.6783 38.7301 58.4614 39.0714 58.4614H43.0489C43.4871 58.4614 43.8449 58.1806 43.8449 57.8376C43.8449 57.4952 43.487 57.2146 43.0489 57.2146H39.0714C38.7301 57.2146 38.4532 56.9978 38.4532 56.7308C38.4532 56.4637 38.7301 56.2469 39.0714 56.2469H43.535C43.9731 56.2469 44.3309 55.9669 44.3309 55.624C44.3309 55.2811 43.9731 55.001 43.535 55.001H39.0714C38.7301 55.001 38.4532 54.7842 38.4532 54.5172C38.4532 54.2501 38.7301 54.0333 39.0714 54.0333H42.7613C43.1996 54.0333 43.5585 53.7528 43.5585 53.4103C43.5585 53.0674 43.1996 52.7874 42.7613 52.7874H37.4088C37.1669 52.7874 36.9471 52.677 36.8466 52.5047C36.746 52.3325 36.783 52.1302 36.9412 51.987C37.4112 51.5618 37.9686 50.3053 37.8216 49.2688C37.7616 48.8456 37.5716 48.4568 37.1528 48.2135C36.5396 50.304 36.3709 50.698 34.5219 51.6444C33.4612 52.1868 33.5419 52.176 32.7313 53.0939C32.3031 53.5781 31.7042 53.8887 30.804 53.9164ZM44.0202 43.9801C47.8978 43.9801 51.0555 41.5058 51.0555 38.4739C51.0555 35.4421 47.8978 32.9677 44.0202 32.9677C40.1465 32.9677 36.9889 35.4421 36.9889 38.4739C36.9889 41.5057 40.1465 43.9801 44.0202 43.9801ZM59.1813 57.2878C59.1762 57.291 59.171 57.2943 59.166 57.2976C58.9712 57.4256 58.8532 57.6196 58.4892 58.056C58.2292 58.3668 57.8511 58.5822 57.4262 58.6801L57.854 59.4721L58.3689 58.8232C58.5055 58.6511 58.7645 58.5638 59.018 58.6045L59.9868 58.7595L59.1813 57.2878ZM53.2713 58.7325C52.7106 58.6875 52.1976 58.4484 51.8699 58.0566C51.6579 57.8029 51.529 57.631 51.4202 57.5064C51.0186 58.1836 50.3973 59.2313 50.3973 59.2313L51.3695 59.098C51.6247 59.0631 51.8806 59.1563 52.0107 59.3316L52.5086 60.0022L53.2713 58.7325ZM55.5922 49.2607C55.3433 49.115 55.0153 49.115 54.7665 49.2607C54.0711 49.6676 53.792 49.837 53.4805 49.9257C53.1689 50.0145 52.8164 50.0251 51.9498 50.0631C51.639 50.0768 51.3865 50.2414 51.3154 50.4782C51.1179 51.1399 51.0437 51.4098 50.8781 51.6347C50.7125 51.8596 50.4512 52.0451 49.8186 52.5109L49.8165 52.5124C49.5896 52.6779 49.5345 52.9312 49.6739 53.1482C50.0658 53.7546 50.2303 53.9989 50.2877 54.2544C50.3451 54.5099 50.2968 54.7834 50.1942 55.4582C50.1572 55.6989 50.3209 55.9218 50.6059 56.0165L50.608 56.0172C51.4064 56.2851 51.7331 56.3895 51.987 56.5565C52.2409 56.7234 52.4287 56.9574 52.9043 57.5266C53.074 57.7292 53.3823 57.8177 53.6802 57.7468C54.5106 57.5507 54.847 57.4661 55.1785 57.4661C55.51 57.4661 55.846 57.5505 56.6774 57.7466L56.6789 57.747C56.9757 57.8177 57.2847 57.7292 57.4541 57.5266C57.9288 56.9573 58.1168 56.7233 58.3711 56.5563C58.6253 56.3893 58.9524 56.2851 59.7506 56.0172L59.7527 56.0165C60.0381 55.9217 60.1999 55.6986 60.1643 55.4576C60.0606 54.7832 60.0126 54.5096 60.0703 54.2541C60.128 53.9986 60.293 53.7544 60.6847 53.1481C60.8244 52.9309 60.7673 52.6774 60.5411 52.5117L60.5401 52.5109C59.9077 52.0453 59.6463 51.8597 59.4805 51.635C59.3147 51.4101 59.24 51.1402 59.0413 50.4784L59.0408 50.4768C58.971 50.2406 58.7187 50.0768 58.4088 50.0631C57.5422 50.0251 57.1898 50.0145 56.8781 49.9257C56.5666 49.837 56.2877 49.6676 55.5922 49.2607ZM55.1783 56.8084C52.823 56.8084 50.9009 55.304 50.9009 53.4606C50.9009 51.6172 52.823 50.1128 55.1783 50.1128C57.536 50.1128 59.4558 51.6172 59.4558 53.4606C59.4558 55.304 57.536 56.8084 55.1783 56.8084ZM55.1783 55.8407C56.8544 55.8407 58.2193 54.7711 58.2193 53.4606C58.2193 52.15 56.8544 51.0806 55.1783 51.0806C53.5039 51.0806 52.1373 52.15 52.1373 53.4606C52.1373 54.7711 53.5039 55.8407 55.1783 55.8407ZM53.4582 53.8636C53.2166 53.6748 53.2163 53.3683 53.4574 53.1793C53.6984 52.9903 54.0902 52.99 54.3317 53.1787L54.6644 53.4386L56.0484 52.4565C56.3012 52.2771 56.6926 52.2921 56.9218 52.4899C57.1509 52.6878 57.1317 52.994 56.8789 53.1734L55.0592 54.4648C54.815 54.638 54.4403 54.6309 54.2071 54.4488L53.4582 53.8636ZM27.2365 53.0032V61.0322H29.5675V53.0032H27.2365Z" fill="white"/>
</svg>
