<svg width="278" height="96" viewBox="0 0 278 96" fill="none" xmlns="http://www.w3.org/2000/svg">
<rect width="277.572" height="95.7604" rx="8" fill="white"/>
<path d="M97.3742 34.7061H95.9765L99.1171 25.9788H100.638L103.779 34.7061H102.381L99.914 27.564H99.8458L97.3742 34.7061ZM97.6086 31.2884H102.143V32.3964H97.6086V31.2884ZM109.795 29.7586L108.64 29.9632C108.592 29.8154 108.515 29.6748 108.41 29.5413C108.308 29.4078 108.169 29.2984 107.992 29.2132C107.816 29.1279 107.596 29.0853 107.332 29.0853C106.971 29.0853 106.67 29.1663 106.429 29.3282C106.187 29.4873 106.066 29.6933 106.066 29.9461C106.066 30.1649 106.147 30.341 106.309 30.4745C106.471 30.608 106.733 30.7174 107.093 30.8026L108.133 31.0413C108.735 31.1805 109.184 31.395 109.48 31.6847C109.775 31.9745 109.923 32.3509 109.923 32.814C109.923 33.2061 109.809 33.5555 109.582 33.8623C109.358 34.1663 109.044 34.4049 108.64 34.5782C108.24 34.7515 107.775 34.8382 107.247 34.8382C106.514 34.8382 105.916 34.6819 105.453 34.3694C104.99 34.0541 104.706 33.6066 104.6 33.0271L105.832 32.8396C105.909 33.1606 106.066 33.4035 106.305 33.5683C106.544 33.7302 106.855 33.8112 107.238 33.8112C107.656 33.8112 107.99 33.7245 108.24 33.5512C108.49 33.3751 108.615 33.1606 108.615 32.9078C108.615 32.7032 108.538 32.5313 108.385 32.3921C108.234 32.2529 108.002 32.1478 107.69 32.0768L106.582 31.8339C105.971 31.6947 105.519 31.4731 105.227 31.1691C104.937 30.8651 104.792 30.4802 104.792 30.0143C104.792 29.6279 104.9 29.2899 105.116 29.0001C105.332 28.7103 105.63 28.4845 106.011 28.3225C106.392 28.1578 106.828 28.0754 107.319 28.0754C108.027 28.0754 108.583 28.2288 108.99 28.5356C109.396 28.8396 109.664 29.2472 109.795 29.7586ZM116.229 29.7586L115.074 29.9632C115.026 29.8154 114.949 29.6748 114.844 29.5413C114.741 29.4078 114.602 29.2984 114.426 29.2132C114.25 29.1279 114.03 29.0853 113.766 29.0853C113.405 29.0853 113.104 29.1663 112.862 29.3282C112.621 29.4873 112.5 29.6933 112.5 29.9461C112.5 30.1649 112.581 30.341 112.743 30.4745C112.905 30.608 113.166 30.7174 113.527 30.8026L114.567 31.0413C115.169 31.1805 115.618 31.395 115.913 31.6847C116.209 31.9745 116.356 32.3509 116.356 32.814C116.356 33.2061 116.243 33.5555 116.016 33.8623C115.791 34.1663 115.477 34.4049 115.074 34.5782C114.673 34.7515 114.209 34.8382 113.68 34.8382C112.947 34.8382 112.349 34.6819 111.886 34.3694C111.423 34.0541 111.139 33.6066 111.034 33.0271L112.266 32.8396C112.342 33.1606 112.5 33.4035 112.739 33.5683C112.977 33.7302 113.288 33.8112 113.672 33.8112C114.089 33.8112 114.423 33.7245 114.673 33.5512C114.923 33.3751 115.048 33.1606 115.048 32.9078C115.048 32.7032 114.972 32.5313 114.818 32.3921C114.668 32.2529 114.436 32.1478 114.124 32.0768L113.016 31.8339C112.405 31.6947 111.953 31.4731 111.66 31.1691C111.371 30.8651 111.226 30.4802 111.226 30.0143C111.226 29.6279 111.334 29.2899 111.55 29.0001C111.766 28.7103 112.064 28.4845 112.445 28.3225C112.825 28.1578 113.261 28.0754 113.753 28.0754C114.46 28.0754 115.017 28.2288 115.423 28.5356C115.83 28.8396 116.098 29.2472 116.229 29.7586ZM120.578 34.8382C119.934 34.8382 119.378 34.7004 118.912 34.4248C118.449 34.1464 118.091 33.7558 117.838 33.2529C117.588 32.7472 117.463 32.1549 117.463 31.4759C117.463 30.8055 117.588 30.2146 117.838 29.7032C118.091 29.1918 118.443 28.7927 118.895 28.5058C119.35 28.2188 119.881 28.0754 120.489 28.0754C120.858 28.0754 121.216 28.1365 121.563 28.2586C121.909 28.3808 122.22 28.5725 122.496 28.8339C122.772 29.0953 122.989 29.4347 123.148 29.8524C123.307 30.2671 123.387 30.7714 123.387 31.3651V31.8169H118.184V30.8623H122.138C122.138 30.5271 122.07 30.2302 121.934 29.9717C121.797 29.7103 121.605 29.5043 121.358 29.3538C121.114 29.2032 120.827 29.1279 120.497 29.1279C120.14 29.1279 119.827 29.216 119.56 29.3921C119.296 29.5654 119.091 29.7927 118.946 30.074C118.804 30.3524 118.733 30.6549 118.733 30.9816V31.7274C118.733 32.1649 118.81 32.537 118.963 32.8438C119.12 33.1507 119.337 33.385 119.615 33.547C119.894 33.7061 120.219 33.7856 120.591 33.7856C120.833 33.7856 121.053 33.7515 121.252 33.6833C121.451 33.6123 121.622 33.5072 121.767 33.368C121.912 33.2288 122.023 33.0569 122.1 32.8524L123.306 33.0697C123.209 33.4248 123.036 33.7359 122.786 34.0029C122.539 34.2671 122.228 34.4731 121.853 34.6208C121.48 34.7657 121.056 34.8382 120.578 34.8382ZM127.856 28.1606V29.1833H124.28V28.1606H127.856ZM125.239 26.5924H126.513V32.7842C126.513 33.0313 126.55 33.2174 126.624 33.3424C126.698 33.4646 126.793 33.5484 126.91 33.5938C127.029 33.6365 127.158 33.6578 127.298 33.6578C127.4 33.6578 127.489 33.6507 127.566 33.6365C127.643 33.6222 127.702 33.6109 127.745 33.6024L127.975 34.6549C127.901 34.6833 127.796 34.7117 127.66 34.7401C127.523 34.7714 127.353 34.7884 127.148 34.7913C126.813 34.797 126.501 34.7373 126.211 34.6123C125.921 34.4873 125.687 34.2941 125.508 34.0328C125.329 33.7714 125.239 33.4433 125.239 33.0484V26.5924ZM134.065 29.7586L132.91 29.9632C132.861 29.8154 132.785 29.6748 132.68 29.5413C132.577 29.4078 132.438 29.2984 132.262 29.2132C132.086 29.1279 131.866 29.0853 131.602 29.0853C131.241 29.0853 130.94 29.1663 130.698 29.3282C130.457 29.4873 130.336 29.6933 130.336 29.9461C130.336 30.1649 130.417 30.341 130.579 30.4745C130.741 30.608 131.002 30.7174 131.363 30.8026L132.403 31.0413C133.005 31.1805 133.454 31.395 133.749 31.6847C134.045 31.9745 134.192 32.3509 134.192 32.814C134.192 33.2061 134.079 33.5555 133.852 33.8623C133.627 34.1663 133.313 34.4049 132.91 34.5782C132.509 34.7515 132.045 34.8382 131.516 34.8382C130.783 34.8382 130.185 34.6819 129.722 34.3694C129.259 34.0541 128.975 33.6066 128.87 33.0271L130.102 32.8396C130.178 33.1606 130.336 33.4035 130.575 33.5683C130.813 33.7302 131.124 33.8112 131.508 33.8112C131.925 33.8112 132.259 33.7245 132.509 33.5512C132.759 33.3751 132.884 33.1606 132.884 32.9078C132.884 32.7032 132.807 32.5313 132.654 32.3921C132.504 32.2529 132.272 32.1478 131.959 32.0768L130.852 31.8339C130.241 31.6947 129.789 31.4731 129.496 31.1691C129.207 30.8651 129.062 30.4802 129.062 30.0143C129.062 29.6279 129.17 29.2899 129.386 29.0001C129.602 28.7103 129.9 28.4845 130.28 28.3225C130.661 28.1578 131.097 28.0754 131.589 28.0754C132.296 28.0754 132.853 28.2288 133.259 28.5356C133.665 28.8396 133.934 29.2472 134.065 29.7586Z" fill="#1B1464"/>
<path d="M103.468 66.6761C102.263 66.6761 101.19 66.4545 100.246 66.0114C99.3089 65.5682 98.5646 64.9574 98.0135 64.179C97.4623 63.4006 97.1754 62.5085 97.1527 61.5028H100.732C100.772 62.179 101.056 62.7273 101.584 63.1477C102.113 63.5682 102.741 63.7784 103.468 63.7784C104.048 63.7784 104.559 63.6506 105.002 63.3949C105.451 63.1335 105.8 62.7727 106.05 62.3125C106.306 61.8466 106.434 61.3125 106.434 60.7102C106.434 60.0966 106.303 59.5568 106.042 59.0909C105.786 58.625 105.431 58.2614 104.977 58C104.522 57.7386 104.002 57.6051 103.417 57.5994C102.905 57.5994 102.408 57.7045 101.925 57.9148C101.448 58.125 101.076 58.4119 100.809 58.7756L97.5277 58.1875L98.3544 48.983H109.025V52H101.397L100.945 56.3722H101.048C101.354 55.9403 101.817 55.5824 102.437 55.2983C103.056 55.0142 103.749 54.8722 104.516 54.8722C105.567 54.8722 106.505 55.1193 107.329 55.6136C108.153 56.108 108.803 56.7869 109.28 57.6506C109.758 58.5085 109.994 59.4972 109.988 60.6165C109.994 61.7926 109.721 62.8381 109.17 63.7528C108.624 64.6619 107.86 65.3778 106.877 65.9006C105.9 66.4176 104.763 66.6761 103.468 66.6761ZM119.405 66.821C117.94 66.8153 116.678 66.4545 115.621 65.7386C114.57 65.0227 113.761 63.9858 113.192 62.6278C112.63 61.2699 112.352 59.6364 112.357 57.7273C112.357 55.8239 112.638 54.2017 113.201 52.8608C113.769 51.5199 114.579 50.5 115.63 49.8011C116.687 49.0966 117.945 48.7443 119.405 48.7443C120.866 48.7443 122.121 49.0966 123.173 49.8011C124.229 50.5057 125.042 51.5284 125.61 52.8693C126.178 54.2045 126.459 55.8239 126.454 57.7273C126.454 59.642 126.17 61.2784 125.602 62.6364C125.039 63.9943 124.232 65.0312 123.181 65.7472C122.13 66.4631 120.871 66.821 119.405 66.821ZM119.405 63.7614C120.405 63.7614 121.204 63.2585 121.8 62.2528C122.397 61.2472 122.692 59.7386 122.687 57.7273C122.687 56.4034 122.55 55.3011 122.278 54.4205C122.011 53.5398 121.63 52.8778 121.136 52.4347C120.647 51.9915 120.07 51.7699 119.405 51.7699C118.411 51.7699 117.616 52.267 117.019 53.2614C116.423 54.2557 116.121 55.7443 116.116 57.7273C116.116 59.0682 116.249 60.1875 116.516 61.0852C116.789 61.9773 117.173 62.6477 117.667 63.0966C118.161 63.5398 118.741 63.7614 119.405 63.7614ZM135.929 66.821C134.463 66.8153 133.202 66.4545 132.145 65.7386C131.094 65.0227 130.284 63.9858 129.716 62.6278C129.153 61.2699 128.875 59.6364 128.881 57.7273C128.881 55.8239 129.162 54.2017 129.724 52.8608C130.293 51.5199 131.102 50.5 132.153 49.8011C133.21 49.0966 134.469 48.7443 135.929 48.7443C137.389 48.7443 138.645 49.0966 139.696 49.8011C140.753 50.5057 141.565 51.5284 142.133 52.8693C142.702 54.2045 142.983 55.8239 142.977 57.7273C142.977 59.642 142.693 61.2784 142.125 62.6364C141.562 63.9943 140.756 65.0312 139.705 65.7472C138.653 66.4631 137.395 66.821 135.929 66.821ZM135.929 63.7614C136.929 63.7614 137.727 63.2585 138.324 62.2528C138.92 61.2472 139.216 59.7386 139.21 57.7273C139.21 56.4034 139.074 55.3011 138.801 54.4205C138.534 53.5398 138.153 52.8778 137.659 52.4347C137.17 51.9915 136.594 51.7699 135.929 51.7699C134.935 51.7699 134.139 52.267 133.543 53.2614C132.946 54.2557 132.645 55.7443 132.639 57.7273C132.639 59.0682 132.773 60.1875 133.04 61.0852C133.312 61.9773 133.696 62.6477 134.19 63.0966C134.685 63.5398 135.264 63.7614 135.929 63.7614ZM150.825 63.7784V51.7102H153.876V63.7784H150.825ZM146.316 59.2699V56.2188H158.384V59.2699H146.316ZM177.424 55.0938H173.691C173.623 54.6108 173.484 54.1818 173.273 53.8068C173.063 53.4261 172.793 53.1023 172.464 52.8352C172.134 52.5682 171.754 52.3636 171.322 52.2216C170.896 52.0795 170.432 52.0085 169.932 52.0085C169.029 52.0085 168.242 52.233 167.572 52.6818C166.901 53.125 166.381 53.7727 166.012 54.625C165.643 55.4716 165.458 56.5 165.458 57.7102C165.458 58.9545 165.643 60 166.012 60.8466C166.387 61.6932 166.91 62.3324 167.58 62.7642C168.251 63.196 169.026 63.4119 169.907 63.4119C170.401 63.4119 170.859 63.3466 171.279 63.2159C171.705 63.0852 172.083 62.8949 172.413 62.6449C172.742 62.3892 173.015 62.0795 173.231 61.7159C173.452 61.3523 173.606 60.9375 173.691 60.4716L177.424 60.4886C177.327 61.2898 177.086 62.0625 176.7 62.8068C176.319 63.5455 175.805 64.2074 175.157 64.7926C174.515 65.3722 173.748 65.8324 172.856 66.1733C171.969 66.5085 170.967 66.6761 169.847 66.6761C168.29 66.6761 166.898 66.3239 165.671 65.6193C164.45 64.9148 163.484 63.8949 162.773 62.5597C162.069 61.2244 161.717 59.608 161.717 57.7102C161.717 55.8068 162.075 54.1875 162.79 52.8523C163.506 51.517 164.478 50.5 165.705 49.8011C166.932 49.0966 168.313 48.7443 169.847 48.7443C170.859 48.7443 171.796 48.8864 172.66 49.1705C173.529 49.4545 174.299 49.8693 174.969 50.4148C175.64 50.9545 176.185 51.6165 176.606 52.4006C177.032 53.1847 177.305 54.0824 177.424 55.0938ZM180.002 66.4375V53.3466H183.522V55.6307H183.658C183.897 54.8182 184.298 54.2045 184.86 53.7898C185.423 53.3693 186.07 53.1591 186.803 53.1591C186.985 53.1591 187.181 53.1705 187.391 53.1932C187.602 53.2159 187.786 53.2472 187.945 53.2869V56.5085C187.775 56.4574 187.539 56.4119 187.238 56.3722C186.937 56.3324 186.661 56.3125 186.411 56.3125C185.877 56.3125 185.4 56.429 184.979 56.6619C184.565 56.8892 184.235 57.2074 183.991 57.6165C183.752 58.0256 183.633 58.4972 183.633 59.0312V66.4375H180.002ZM198.454 66.4375H194.499L200.525 48.983H205.28L211.298 66.4375H207.343L202.971 52.9716H202.834L198.454 66.4375ZM198.207 59.5767H207.548V62.4574H198.207V59.5767ZM224.18 48.983H227.87V60.3182C227.87 61.5909 227.566 62.7045 226.958 63.6591C226.356 64.6136 225.512 65.358 224.427 65.892C223.342 66.4205 222.077 66.6847 220.634 66.6847C219.185 66.6847 217.918 66.4205 216.833 65.892C215.748 65.358 214.904 64.6136 214.302 63.6591C213.7 62.7045 213.398 61.5909 213.398 60.3182V48.983H217.089V60.0028C217.089 60.6676 217.234 61.2585 217.523 61.7756C217.819 62.2926 218.234 62.6989 218.768 62.9943C219.302 63.2898 219.924 63.4375 220.634 63.4375C221.35 63.4375 221.972 63.2898 222.501 62.9943C223.035 62.6989 223.447 62.2926 223.736 61.7756C224.032 61.2585 224.18 60.6676 224.18 60.0028V48.983ZM230.906 48.983H235.457L240.264 60.7102H240.469L245.276 48.983H249.827V66.4375H246.247V55.0767H246.102L241.585 66.3523H239.148L234.631 55.0341H234.486V66.4375H230.906V48.983Z" fill="#0666E5"/>
<ellipse cx="46.7879" cy="47.3868" rx="29.9652" ry="27.6422" fill="#1B1464"/>
<g clip-path="url(#clip0_4065_26)">
<path d="M60.766 51.5537C59.838 51.5537 59.3358 52.0329 59.1027 52.4717C58.8694 52.9084 58.879 53.3293 58.879 53.3293V61.6248C58.879 61.6248 58.8694 62.0435 59.1027 62.4823C59.3358 62.919 59.8475 63.4004 60.7684 63.4004H63.2955C64.2355 63.4004 64.7257 62.919 64.9589 62.4823C65.1921 62.0435 65.1874 61.6248 65.1874 61.6248V53.3293C65.1874 53.3293 65.1921 52.9084 64.9589 52.4717C64.7257 52.0329 64.2379 51.5537 63.2932 51.5537H60.766ZM60.766 52.7382H63.2955C63.6144 52.7382 63.7525 52.8456 63.8333 53.0001C63.9166 53.1569 63.9286 53.3293 63.9286 53.3293V61.6248C63.9286 61.6248 63.9166 61.7928 63.8333 61.9473C63.7525 62.104 63.6287 62.2159 63.2955 62.2159H60.766C60.4376 62.2159 60.3091 62.104 60.2282 61.9473C60.1449 61.7928 60.1402 61.6248 60.1402 61.6248V53.3293C60.1402 53.3293 60.1449 53.1546 60.2282 53.0001C60.3091 52.8456 60.4376 52.7382 60.766 52.7382Z" fill="white"/>
<path d="M50.2439 53.3234C50.086 53.3229 49.9333 53.373 49.8147 53.4643L45.6448 56.7129C45.3688 56.9035 45.1401 57.1415 44.9729 57.4122C44.8057 57.6829 44.7033 57.9807 44.6722 58.2872C44.6411 58.5938 44.6819 58.9027 44.7919 59.195C44.902 59.4873 45.0792 59.7568 45.3125 59.9871C45.5458 60.2174 45.8303 60.4035 46.1487 60.5341C46.4671 60.6647 46.8126 60.737 47.1641 60.7466C47.5155 60.7562 47.8655 60.7029 48.1926 60.5899C48.5196 60.4769 48.8168 60.3066 49.0661 60.0895L50.7292 58.8003C51.3729 58.3009 50.517 57.4557 49.8708 57.9551L48.2004 59.255C48.0184 59.4051 47.7898 59.5046 47.5433 59.5411C47.2968 59.5775 47.0435 59.5493 46.8153 59.4599C46.5827 59.3777 46.384 59.2359 46.2452 59.053C46.1064 58.8702 46.034 58.6549 46.0374 58.4354C46.0353 58.2707 46.0744 58.1076 46.1519 57.9575C46.2294 57.8075 46.3434 57.674 46.4861 57.5666L50.4853 54.4525H58.9592V53.3213L50.2439 53.3234Z" fill="white"/>
<path d="M45.3624 58.3229L36.066 58.35C35.4896 58.3354 34.8037 58.4043 34.1907 58.7341C33.5753 59.064 33.101 59.6381 33.1108 60.5483C33.1254 61.6151 34.0375 62.5316 35.2731 62.7048L46.2526 64.3729C46.8655 64.4313 47.3276 64.3123 47.8773 64.1224L56.3272 61.0827H58.8787V59.9763H56.1959C56.1104 59.9773 56.0261 59.9929 55.9478 60.0222L47.4152 63.0911C46.9068 63.2581 46.7755 63.3082 46.3888 63.2727L35.4823 61.6172C35.1826 61.5797 34.9087 61.4512 34.71 61.2551C34.5114 61.059 34.4014 60.8082 34.3999 60.5483C34.3999 60.0536 34.5799 59.8239 34.8693 59.6673C35.1612 59.5107 35.6233 59.4418 36.0271 59.4523L45.3672 59.4272L45.3624 58.3229ZM46.0093 40.6446C43.9605 40.6467 41.9963 41.3466 40.548 42.5905C39.0998 43.8343 38.2856 45.5206 38.2843 47.2791C38.2875 49.0366 39.1025 50.7212 40.5506 51.9637C41.9987 53.2062 43.9617 53.9052 46.0093 53.9074C48.0569 53.9052 50.02 53.2062 51.468 51.9637C52.9162 50.7212 53.7312 49.0366 53.7344 47.2791C53.7331 45.5206 52.919 43.8343 51.4706 42.5905C50.0223 41.3466 48.0582 40.6467 46.0093 40.6446ZM46.0093 41.751C46.8552 41.7499 47.693 41.8921 48.4747 42.1694C49.2564 42.4467 49.9667 42.8537 50.5648 43.3671C51.1629 43.8805 51.6371 44.4901 51.9602 45.161C52.2833 45.832 52.449 46.551 52.4477 47.2771C52.4486 48.0029 52.2828 48.7217 51.9595 49.3924C51.6363 50.0631 51.162 50.6725 50.5639 51.1856C49.9658 51.6988 49.2557 52.1056 48.4741 52.3828C47.6926 52.66 46.855 52.8021 46.0093 52.801C45.1639 52.8018 44.3266 52.6595 43.5453 52.3822C42.764 52.1049 42.0541 51.698 41.4563 51.1849C40.8585 50.6718 40.3845 50.0625 40.0614 49.3919C39.7383 48.7214 39.5724 48.0027 39.5734 47.2771C39.5722 46.5512 39.7377 45.8323 40.0607 45.1615C40.3836 44.4907 40.8576 43.8812 41.4555 43.3678C42.0533 42.8545 42.7633 42.4474 43.5447 42.17C44.3262 41.8925 45.1637 41.7502 46.0093 41.751ZM31.8532 42.8575C32.8019 42.8575 33.3151 42.4086 33.5534 42.0015C33.7918 41.5924 33.7821 41.1999 33.7821 41.1999V33.4651C33.7821 33.4651 33.7918 33.0747 33.5534 32.6655C33.3151 32.2584 32.7921 31.8096 31.8508 31.8096H29.2701C28.3094 31.8096 27.8083 32.2584 27.5699 32.6655C27.3316 33.0747 27.3364 33.4651 27.3364 33.4651V41.1999C27.3364 41.1999 27.3316 41.5924 27.5699 41.9994C27.8083 42.4086 28.3069 42.8554 29.2726 42.8554L31.8532 42.8575ZM31.8532 41.751H29.2677C28.9418 41.751 28.8007 41.6508 28.718 41.5068C28.6329 41.3606 28.6207 41.1999 28.6207 41.1999V33.4651C28.6207 33.4651 28.6329 33.3085 28.718 33.1645C28.8007 33.0183 28.9272 32.9139 29.2677 32.9139H31.8532C32.1889 32.9139 32.3203 33.0183 32.403 33.1645C32.4881 33.3085 32.4929 33.4651 32.4929 33.4651V41.1999C32.4929 41.1999 32.4881 41.3627 32.403 41.5068C32.3203 41.6508 32.1889 41.751 31.8532 41.751Z" fill="white"/>
<path d="M41.9794 40.6947C42.1295 40.6947 42.2746 40.6481 42.3874 40.5636L46.3738 37.5398C46.6377 37.3624 46.8563 37.1408 47.0162 36.8889C47.1761 36.6368 47.2739 36.3597 47.3037 36.0744C47.3334 35.789 47.2945 35.5015 47.1892 35.2294C47.084 34.9573 46.9146 34.7065 46.6916 34.4921C46.4686 34.2778 46.1965 34.1046 45.8921 33.983C45.5877 33.8614 45.2574 33.7941 44.9214 33.7852C44.5854 33.7763 44.2509 33.8259 43.9382 33.9311C43.6255 34.0362 43.3413 34.1947 43.1031 34.3968L41.5131 35.5968C40.8976 36.0617 41.716 36.8484 42.3337 36.3835L43.9307 35.1736C44.1046 35.0339 44.3232 34.9412 44.5589 34.9073C44.7945 34.8734 45.0366 34.8997 45.2548 34.9829C45.4771 35.0594 45.6671 35.1914 45.7999 35.3616C45.9326 35.5318 46.0018 35.7322 45.9985 35.9365C46.0005 36.0898 45.9632 36.2416 45.8891 36.3813C45.815 36.5209 45.7059 36.6451 45.5696 36.7451L41.7462 39.6457H33.645V40.6947H41.9794Z" fill="white"/>
<path d="M46.8811 36.0841L55.9847 36.054C56.5492 36.069 57.2209 35.998 57.8212 35.6583C58.4238 35.3185 58.8883 34.7271 58.8787 33.7894C58.8704 33.2537 58.6538 32.7376 58.2667 32.3315C57.8796 31.9254 57.3467 31.6551 56.7613 31.5679L46.0094 29.8496C45.4091 29.7915 44.9566 29.912 44.4183 30.1077L36.1436 33.2367H33.645V34.3765H36.2746C36.3556 34.3765 36.439 34.3593 36.5152 34.3292L44.8708 31.17C45.3687 30.998 45.4973 30.9464 45.876 30.9829L56.5564 32.6883C56.8498 32.7269 57.1181 32.8593 57.3126 33.0613C57.5071 33.2634 57.6149 33.5217 57.6163 33.7894C57.6163 34.2991 57.44 34.5357 57.1566 34.697C56.8708 34.8583 56.4182 34.9314 56.0228 34.9206L46.8764 34.9443L46.8811 36.0841ZM43.7561 43.5035C42.913 43.5035 42.913 44.6433 43.7561 44.6433H48.8057C49.6489 44.6433 49.6489 43.5035 48.8057 43.5035H43.7561Z" fill="white"/>
<path d="M46.3894 43.6562V45.9114C46.3894 45.9114 46.382 46.3543 46.132 46.7845C45.8846 47.2125 45.4242 47.598 44.4243 47.598H43.7685C43.6327 47.597 43.5001 47.6324 43.3887 47.6991C43.2773 47.7658 43.1927 47.8606 43.1465 47.9704C43.1004 48.0801 43.0949 48.1995 43.131 48.3122C43.167 48.4247 43.2427 48.5249 43.3477 48.5989L47.2779 51.412C47.9487 51.8954 48.7877 51.0286 48.1195 50.5474L45.4242 48.6159C46.3894 48.4072 46.9933 47.8258 47.3027 47.2913C47.7086 46.5929 47.6987 45.9093 47.6987 45.9093V43.6584H46.387L46.3894 43.6562Z" fill="white"/>
<path d="M43.7384 45.6309C42.8971 45.6309 42.8971 46.6181 43.7384 46.6181H48.7866C49.6256 46.6181 49.6256 45.6309 48.7866 45.6309H43.7384Z" fill="white"/>
</g>
<defs>
<clipPath id="clip0_4065_26">
<rect width="37.8507" height="35.5399" fill="white" transform="translate(27.3364 29.6167)"/>
</clipPath>
</defs>
</svg>
