<svg width="264" height="97" viewBox="0 0 264 97" fill="none" xmlns="http://www.w3.org/2000/svg">
<rect width="264" height="97" rx="8" fill="white"/>
<path d="M91.9588 35V26.2727H97.4304V27.4062H93.2756V30.0653H97.1449V31.1946H93.2756V33.8665H97.4815V35H91.9588ZM100.992 35.1449C100.577 35.1449 100.202 35.0682 99.8668 34.9148C99.5316 34.7585 99.266 34.5327 99.07 34.2372C98.8768 33.9418 98.7802 33.5795 98.7802 33.1506C98.7802 32.7812 98.8512 32.4773 98.9933 32.2386C99.1353 32 99.3271 31.8111 99.5685 31.6719C99.81 31.5327 100.08 31.4276 100.378 31.3565C100.676 31.2855 100.98 31.2315 101.29 31.1946C101.682 31.1491 102 31.1122 102.245 31.0838C102.489 31.0526 102.667 31.0028 102.777 30.9347C102.888 30.8665 102.944 30.7557 102.944 30.6023V30.5724C102.944 30.2003 102.838 29.9119 102.628 29.7074C102.421 29.5028 102.111 29.4006 101.699 29.4006C101.27 29.4006 100.932 29.4957 100.685 29.6861C100.441 29.8736 100.272 30.0824 100.178 30.3125L98.9805 30.0398C99.1225 29.642 99.3299 29.321 99.6026 29.0767C99.8782 28.8295 100.195 28.6506 100.553 28.5398C100.911 28.4261 101.287 28.3693 101.682 28.3693C101.944 28.3693 102.221 28.4006 102.513 28.4631C102.809 28.5227 103.084 28.6335 103.34 28.7955C103.598 28.9574 103.81 29.1889 103.975 29.4901C104.14 29.7884 104.222 30.1761 104.222 30.6534V35H102.978V34.1051H102.926C102.844 34.2699 102.721 34.4318 102.556 34.5909C102.391 34.75 102.179 34.8821 101.921 34.9872C101.662 35.0923 101.353 35.1449 100.992 35.1449ZM101.269 34.1222C101.621 34.1222 101.922 34.0526 102.172 33.9134C102.425 33.7741 102.617 33.5923 102.748 33.3679C102.881 33.1406 102.948 32.8977 102.948 32.6392V31.7955C102.902 31.8409 102.814 31.8835 102.684 31.9233C102.556 31.9602 102.409 31.9929 102.245 32.0213C102.08 32.0469 101.919 32.071 101.763 32.0938C101.607 32.1136 101.476 32.1307 101.371 32.1449C101.124 32.1761 100.898 32.2287 100.694 32.3026C100.492 32.3764 100.33 32.483 100.208 32.6222C100.088 32.7585 100.029 32.9403 100.029 33.1676C100.029 33.483 100.145 33.7216 100.378 33.8835C100.611 34.0426 100.908 34.1222 101.269 34.1222ZM105.919 35V28.4545H107.151V29.4943H107.219C107.338 29.142 107.548 28.8651 107.849 28.6634C108.153 28.4588 108.497 28.3565 108.881 28.3565C108.96 28.3565 109.054 28.3594 109.162 28.3651C109.273 28.3707 109.359 28.3778 109.422 28.3864V29.6051C109.371 29.5909 109.28 29.5753 109.149 29.5582C109.018 29.5384 108.888 29.5284 108.757 29.5284C108.456 29.5284 108.188 29.5923 107.952 29.7202C107.719 29.8452 107.534 30.0199 107.398 30.2443C107.261 30.4659 107.193 30.7187 107.193 31.0028V35H105.919ZM111.799 31.1136V35H110.525V28.4545H111.748V29.5199H111.828C111.979 29.1733 112.215 28.8949 112.536 28.6847C112.86 28.4744 113.267 28.3693 113.759 28.3693C114.205 28.3693 114.596 28.4631 114.931 28.6506C115.266 28.8352 115.526 29.1108 115.711 29.4773C115.895 29.8437 115.988 30.2969 115.988 30.8366V35H114.713V30.9901C114.713 30.5156 114.59 30.1449 114.343 29.8778C114.096 29.608 113.756 29.473 113.324 29.473C113.029 29.473 112.766 29.5369 112.536 29.6648C112.309 29.7926 112.128 29.9801 111.995 30.2273C111.864 30.4716 111.799 30.767 111.799 31.1136ZM117.696 35V28.4545H118.971V35H117.696ZM118.34 27.4446C118.118 27.4446 117.928 27.3707 117.769 27.223C117.613 27.0724 117.534 26.8935 117.534 26.6861C117.534 26.4759 117.613 26.2969 117.769 26.1491C117.928 25.9986 118.118 25.9233 118.34 25.9233C118.561 25.9233 118.75 25.9986 118.907 26.1491C119.066 26.2969 119.145 26.4759 119.145 26.6861C119.145 26.8935 119.066 27.0724 118.907 27.223C118.75 27.3707 118.561 27.4446 118.34 27.4446ZM121.959 31.1136V35H120.685V28.4545H121.908V29.5199H121.989C122.139 29.1733 122.375 28.8949 122.696 28.6847C123.02 28.4744 123.428 28.3693 123.919 28.3693C124.365 28.3693 124.756 28.4631 125.091 28.6506C125.426 28.8352 125.686 29.1108 125.871 29.4773C126.055 29.8437 126.148 30.2969 126.148 30.8366V35H124.874V30.9901C124.874 30.5156 124.75 30.1449 124.503 29.8778C124.256 29.608 123.916 29.473 123.484 29.473C123.189 29.473 122.926 29.5369 122.696 29.6648C122.469 29.7926 122.288 29.9801 122.155 30.2273C122.024 30.4716 121.959 30.767 121.959 31.1136ZM130.601 37.5909C130.081 37.5909 129.634 37.5227 129.259 37.3864C128.886 37.25 128.582 37.0696 128.347 36.8452C128.111 36.6207 127.935 36.375 127.818 36.108L128.913 35.6562C128.99 35.7812 129.092 35.9134 129.22 36.0526C129.351 36.1946 129.527 36.3153 129.749 36.4148C129.973 36.5142 130.261 36.5639 130.614 36.5639C131.097 36.5639 131.496 36.446 131.811 36.2102C132.126 35.9773 132.284 35.6051 132.284 35.0938V33.8068H132.203C132.126 33.946 132.016 34.1009 131.871 34.2713C131.729 34.4418 131.533 34.5895 131.283 34.7145C131.033 34.8395 130.707 34.902 130.307 34.902C129.79 34.902 129.324 34.7812 128.909 34.5398C128.497 34.2955 128.17 33.9361 127.929 33.4616C127.69 32.9844 127.571 32.3977 127.571 31.7017C127.571 31.0057 127.689 30.4091 127.925 29.9119C128.163 29.4148 128.49 29.0341 128.905 28.7699C129.32 28.5028 129.79 28.3693 130.315 28.3693C130.722 28.3693 131.05 28.4375 131.3 28.5739C131.55 28.7074 131.744 28.8636 131.884 29.0426C132.026 29.2216 132.135 29.3793 132.212 29.5156H132.305V28.4545H133.554V35.1449C133.554 35.7074 133.423 36.169 133.162 36.5298C132.901 36.8906 132.547 37.1577 132.101 37.331C131.658 37.5043 131.158 37.5909 130.601 37.5909ZM130.588 33.8452C130.955 33.8452 131.264 33.7599 131.517 33.5895C131.773 33.4162 131.966 33.169 132.097 32.848C132.23 32.5241 132.297 32.1364 132.297 31.6847C132.297 31.2443 132.232 30.8565 132.101 30.5213C131.97 30.1861 131.778 29.9247 131.526 29.7372C131.273 29.5469 130.96 29.4517 130.588 29.4517C130.205 29.4517 129.885 29.5511 129.629 29.75C129.374 29.946 129.18 30.2131 129.05 30.5511C128.922 30.8892 128.858 31.267 128.858 31.6847C128.858 32.1136 128.923 32.4901 129.054 32.8139C129.185 33.1378 129.378 33.3906 129.634 33.5724C129.892 33.7543 130.21 33.8452 130.588 33.8452ZM140.168 30.0526L139.013 30.2571C138.964 30.1094 138.888 29.9687 138.783 29.8352C138.68 29.7017 138.541 29.5923 138.365 29.5071C138.189 29.4219 137.969 29.3793 137.705 29.3793C137.344 29.3793 137.043 29.4602 136.801 29.6222C136.56 29.7812 136.439 29.9872 136.439 30.2401C136.439 30.4588 136.52 30.6349 136.682 30.7685C136.844 30.902 137.105 31.0114 137.466 31.0966L138.506 31.3352C139.108 31.4744 139.557 31.6889 139.852 31.9787C140.148 32.2685 140.295 32.6449 140.295 33.108C140.295 33.5 140.182 33.8494 139.955 34.1562C139.73 34.4602 139.416 34.6989 139.013 34.8722C138.612 35.0455 138.148 35.1321 137.619 35.1321C136.886 35.1321 136.288 34.9759 135.825 34.6634C135.362 34.348 135.078 33.9006 134.973 33.321L136.205 33.1335C136.281 33.4545 136.439 33.6974 136.678 33.8622C136.916 34.0241 137.227 34.1051 137.611 34.1051C138.028 34.1051 138.362 34.0185 138.612 33.8452C138.862 33.669 138.987 33.4545 138.987 33.2017C138.987 32.9972 138.911 32.8253 138.757 32.6861C138.607 32.5469 138.375 32.4418 138.062 32.3707L136.955 32.1278C136.344 31.9886 135.892 31.767 135.599 31.4631C135.31 31.1591 135.165 30.7741 135.165 30.3082C135.165 29.9219 135.273 29.5838 135.489 29.294C135.705 29.0043 136.003 28.7784 136.384 28.6165C136.764 28.4517 137.2 28.3693 137.692 28.3693C138.399 28.3693 138.956 28.5227 139.362 28.8295C139.768 29.1335 140.037 29.5412 140.168 30.0526Z" fill="#1B1464"/>
<path d="M103.92 53.875L103.298 56.2443H91.8693L92.483 53.875H103.92ZM97.9801 67L92.1506 60.0625L92.1591 57.9318H95.0398C95.6818 57.9318 96.2188 57.8125 96.6506 57.5739C97.0824 57.3352 97.4063 57.0114 97.6222 56.6023C97.8381 56.1932 97.9489 55.7273 97.9545 55.2045C97.9489 54.4205 97.7188 53.7812 97.2642 53.2869C96.8153 52.7869 96.0739 52.5369 95.0398 52.5369H91.8693L92.5682 49.5455H95.0398C96.4886 49.5455 97.696 49.7642 98.6619 50.2017C99.6335 50.6335 100.361 51.25 100.844 52.0511C101.332 52.8523 101.58 53.8068 101.585 54.9148C101.58 55.8977 101.415 56.7557 101.091 57.4886C100.773 58.2216 100.27 58.8324 99.5824 59.321C98.9006 59.8097 98.0114 60.1733 96.9148 60.4119L96.7784 60.4631L101.994 66.8466V67H97.9801ZM103.938 49.5455L103.298 51.9489H93.8892L94.5284 49.5455H103.938ZM112.648 67.2386C111.375 67.2386 110.241 67.0199 109.247 66.5824C108.259 66.1392 107.477 65.5312 106.903 64.7585C106.335 63.9801 106.043 63.0824 106.026 62.0653H109.741C109.764 62.4915 109.903 62.8665 110.159 63.1903C110.42 63.5085 110.767 63.7557 111.199 63.9318C111.631 64.108 112.116 64.196 112.656 64.196C113.219 64.196 113.716 64.0966 114.148 63.8977C114.58 63.6989 114.918 63.4233 115.162 63.071C115.406 62.7187 115.528 62.3125 115.528 61.8523C115.528 61.3864 115.398 60.9744 115.136 60.6165C114.881 60.2528 114.511 59.9687 114.028 59.7642C113.551 59.5597 112.983 59.4574 112.324 59.4574H110.696V56.7472H112.324C112.881 56.7472 113.372 56.6506 113.798 56.4574C114.23 56.2642 114.565 55.9972 114.804 55.6562C115.043 55.3097 115.162 54.9062 115.162 54.446C115.162 54.0085 115.057 53.625 114.847 53.2955C114.642 52.9602 114.352 52.6989 113.977 52.5114C113.608 52.3239 113.176 52.2301 112.682 52.2301C112.182 52.2301 111.724 52.321 111.31 52.5028C110.895 52.679 110.562 52.9318 110.312 53.2614C110.062 53.5909 109.929 53.9773 109.912 54.4205H106.375C106.392 53.4148 106.679 52.5284 107.236 51.7614C107.793 50.9943 108.543 50.3949 109.486 49.9631C110.435 49.5256 111.506 49.3068 112.699 49.3068C113.903 49.3068 114.957 49.5256 115.861 49.9631C116.764 50.4006 117.466 50.9915 117.966 51.7358C118.472 52.4744 118.722 53.304 118.716 54.2244C118.722 55.2017 118.418 56.017 117.804 56.6705C117.196 57.3239 116.403 57.7386 115.426 57.9148V58.0511C116.71 58.2159 117.688 58.6619 118.358 59.3892C119.034 60.1108 119.369 61.0142 119.364 62.0994C119.369 63.0938 119.082 63.9773 118.503 64.75C117.929 65.5227 117.136 66.1307 116.125 66.5739C115.114 67.017 113.955 67.2386 112.648 67.2386ZM128.391 67.2386C127.187 67.2386 126.113 67.017 125.17 66.5739C124.232 66.1307 123.488 65.5199 122.937 64.7415C122.386 63.9631 122.099 63.071 122.076 62.0653H125.656C125.695 62.7415 125.979 63.2898 126.508 63.7102C127.036 64.1307 127.664 64.3409 128.391 64.3409C128.971 64.3409 129.482 64.2131 129.925 63.9574C130.374 63.696 130.724 63.3352 130.974 62.875C131.229 62.4091 131.357 61.875 131.357 61.2727C131.357 60.6591 131.227 60.1193 130.965 59.6534C130.71 59.1875 130.354 58.8239 129.9 58.5625C129.445 58.3011 128.925 58.1676 128.34 58.1619C127.829 58.1619 127.332 58.267 126.849 58.4773C126.371 58.6875 125.999 58.9744 125.732 59.3381L122.451 58.75L123.278 49.5455H133.948V52.5625H126.32L125.869 56.9347H125.971C126.278 56.5028 126.741 56.1449 127.36 55.8608C127.979 55.5767 128.673 55.4347 129.44 55.4347C130.491 55.4347 131.428 55.6818 132.252 56.1761C133.076 56.6705 133.727 57.3494 134.204 58.2131C134.681 59.071 134.917 60.0597 134.911 61.179C134.917 62.3551 134.644 63.4006 134.093 64.3153C133.548 65.2244 132.783 65.9403 131.8 66.4631C130.823 66.9801 129.687 67.2386 128.391 67.2386ZM144.329 67.3835C142.863 67.3778 141.602 67.017 140.545 66.3011C139.494 65.5852 138.684 64.5483 138.116 63.1903C137.553 61.8324 137.275 60.1989 137.281 58.2898C137.281 56.3864 137.562 54.7642 138.124 53.4233C138.692 52.0824 139.502 51.0625 140.553 50.3636C141.61 49.6591 142.869 49.3068 144.329 49.3068C145.789 49.3068 147.045 49.6591 148.096 50.3636C149.153 51.0682 149.965 52.0909 150.533 53.4318C151.102 54.767 151.383 56.3864 151.377 58.2898C151.377 60.2045 151.093 61.8409 150.525 63.1989C149.962 64.5568 149.156 65.5937 148.104 66.3097C147.053 67.0256 145.795 67.3835 144.329 67.3835ZM144.329 64.3239C145.329 64.3239 146.127 63.821 146.724 62.8153C147.32 61.8097 147.616 60.3011 147.61 58.2898C147.61 56.9659 147.474 55.8636 147.201 54.983C146.934 54.1023 146.553 53.4403 146.059 52.9972C145.57 52.554 144.994 52.3324 144.329 52.3324C143.335 52.3324 142.539 52.8295 141.942 53.8239C141.346 54.8182 141.045 56.3068 141.039 58.2898C141.039 59.6307 141.173 60.75 141.44 61.6477C141.712 62.5398 142.096 63.2102 142.59 63.6591C143.085 64.1023 143.664 64.3239 144.329 64.3239ZM155.462 67.2216C154.899 67.2216 154.416 67.0227 154.013 66.625C153.615 66.2216 153.416 65.7386 153.416 65.1761C153.416 64.6193 153.615 64.142 154.013 63.7443C154.416 63.3466 154.899 63.1477 155.462 63.1477C156.007 63.1477 156.484 63.3466 156.893 63.7443C157.303 64.142 157.507 64.6193 157.507 65.1761C157.507 65.5511 157.411 65.8949 157.217 66.2074C157.03 66.5142 156.783 66.7614 156.476 66.9489C156.169 67.1307 155.831 67.2216 155.462 67.2216ZM160.19 63.9318V61.0256L167.477 49.5455H169.982V53.5682H168.499L163.906 60.8381V60.9744H174.261V63.9318H160.19ZM168.567 67V63.0455L168.636 61.7585V49.5455H172.096V67H168.567ZM183.563 67.3835C182.097 67.3778 180.836 67.017 179.779 66.3011C178.728 65.5852 177.918 64.5483 177.35 63.1903C176.788 61.8324 176.509 60.1989 176.515 58.2898C176.515 56.3864 176.796 54.7642 177.359 53.4233C177.927 52.0824 178.737 51.0625 179.788 50.3636C180.844 49.6591 182.103 49.3068 183.563 49.3068C185.023 49.3068 186.279 49.6591 187.33 50.3636C188.387 51.0682 189.2 52.0909 189.768 53.4318C190.336 54.767 190.617 56.3864 190.612 58.2898C190.612 60.2045 190.327 61.8409 189.759 63.1989C189.197 64.5568 188.39 65.5937 187.339 66.3097C186.288 67.0256 185.029 67.3835 183.563 67.3835ZM183.563 64.3239C184.563 64.3239 185.362 63.821 185.958 62.8153C186.555 61.8097 186.85 60.3011 186.844 58.2898C186.844 56.9659 186.708 55.8636 186.435 54.983C186.168 54.1023 185.788 53.4403 185.293 52.9972C184.805 52.554 184.228 52.3324 183.563 52.3324C182.569 52.3324 181.773 52.8295 181.177 53.8239C180.58 54.8182 180.279 56.3068 180.273 58.2898C180.273 59.6307 180.407 60.75 180.674 61.6477C180.947 62.5398 181.33 63.2102 181.825 63.6591C182.319 64.1023 182.898 64.3239 183.563 64.3239Z" fill="#0666E5"/>
<ellipse cx="44.5" cy="48" rx="28.5" ry="28" fill="#1B1464"/>
<rect x="35" y="44" width="4" height="14" rx="2" fill="white"/>
<rect x="43" y="39" width="4" height="19" rx="2" fill="white"/>
<rect x="51" y="49" width="4" height="9" rx="2" fill="white"/>
</svg>
