<svg width="64" height="64" viewBox="0 0 64 64" fill="none" xmlns="http://www.w3.org/2000/svg">
<path d="M61.7549 15.7063C61.7549 15.5113 61.6799 15.32 61.5374 15.1763L49.9249 3.56376C49.7812 3.42001 49.5899 3.34626 49.3949 3.34626V3.34501H18.6299C18.3724 3.05126 18.0462 2.80876 17.6637 2.64376C16.6549 2.21001 15.6112 2.45376 15.0024 3.26251C14.9099 3.38626 14.8574 3.53501 14.8524 3.69001C14.8099 5.01501 13.4574 6.48376 12.0262 8.03751C10.9287 9.22876 9.7949 10.46 9.02865 11.8363L8.2674 12.04C8.16865 11.4888 7.6874 11.0688 7.1074 11.0688H3.4224C2.7724 11.0688 2.24365 11.5975 2.24365 12.2475V23.07C2.24365 23.72 2.7724 24.25 3.4224 24.25H7.10615C7.68115 24.25 8.16115 23.8363 8.26365 23.29C10.3062 23.205 11.4137 23.725 12.4862 24.2288C13.3587 24.6388 14.2599 25.0625 15.5162 25.0625C15.5624 25.0625 15.6087 25.0625 15.6562 25.0613H16.6662V31.3188C8.8974 31.9588 2.77115 38.485 2.77115 46.4163C2.77115 54.7275 9.4974 61.495 17.7924 61.565V61.5663H60.6274C61.2486 61.5663 61.7549 61.0613 61.7549 60.4388V15.7063ZM50.1449 5.90501L59.1962 14.9563H50.1449V5.90501ZM6.78615 22.7488H3.74365V12.5675H6.78615V22.7488ZM15.6474 23.56C15.6412 23.56 15.6337 23.56 15.6274 23.56C14.6437 23.5838 13.9762 23.27 13.1249 22.87C12.0099 22.3463 10.6487 21.7075 8.28615 21.7875V13.5875L9.5899 13.2375C9.8824 13.16 10.1212 12.9688 10.2637 12.7013C10.9399 11.4288 12.0524 10.22 13.1287 9.05126C14.6674 7.38001 16.1262 5.79751 16.3287 4.03626C16.5999 3.84376 16.9549 3.97001 17.0712 4.02001C17.4774 4.19376 17.8449 4.61376 17.7537 5.15876C17.3949 7.29251 16.5199 9.15126 15.0774 10.8425C14.8874 11.065 14.8449 11.3775 14.9674 11.6438C15.0899 11.9088 15.3562 12.08 15.6487 12.08H23.7887C24.2699 12.08 24.6612 12.4713 24.6612 12.9525C24.6612 13.4338 24.2699 13.825 23.7887 13.825H19.5024C19.0887 13.825 18.7524 14.1613 18.7524 14.575C18.7524 14.9888 19.0887 15.325 19.5024 15.325H23.3674C23.8412 15.3313 24.2274 15.7225 24.2274 16.1975C24.2274 16.6788 23.8362 17.07 23.3549 17.07H19.8437C19.4299 17.07 19.0937 17.4063 19.0937 17.82C19.0937 18.2338 19.4299 18.57 19.8437 18.57H22.6087H22.6099C23.0812 18.58 23.4649 18.9713 23.4649 19.4425C23.4649 19.9238 23.0737 20.315 22.5924 20.315H20.2474C19.8337 20.315 19.4974 20.6513 19.4974 21.065C19.4974 21.4788 19.8337 21.815 20.2474 21.815H22.2199C22.7012 21.815 23.0924 22.2063 23.0924 22.6875C23.0924 23.1688 22.7012 23.56 22.2199 23.56H15.6474ZM4.27365 46.415C4.27365 38.8888 10.3974 32.765 17.9237 32.765C25.4499 32.765 31.5737 38.8888 31.5737 46.415C31.5737 53.9413 25.4499 60.065 17.9237 60.065C10.3974 60.065 4.27365 53.9425 4.27365 46.415ZM24.4937 60.0663C29.5662 57.615 33.0737 52.4175 33.0737 46.4163C33.0737 38.1438 26.4087 31.4 18.1674 31.2688V25.06H22.2187C23.5262 25.06 24.5912 23.9963 24.5912 22.6875C24.5912 22.1525 24.4112 21.66 24.1112 21.2625C24.6324 20.8275 24.9637 20.1738 24.9637 19.4425C24.9637 18.9913 24.8324 18.5688 24.6099 18.2075C25.2799 17.7875 25.7274 17.045 25.7274 16.1975C25.7274 15.6775 25.5549 15.1975 25.2674 14.8038C25.8112 14.3688 26.1599 13.7013 26.1599 12.9525C26.1599 11.645 25.0962 10.58 23.7874 10.58H18.1674V8.83001C18.6749 7.75876 19.0274 6.62251 19.2324 5.40751C19.2637 5.21751 19.2712 5.02876 19.2587 4.84251H48.6437V15.1388C48.6437 15.8638 49.2337 16.4538 49.9587 16.4538H60.2549V60.0638H24.4937V60.0663ZM53.7174 39.415C53.7174 39.8288 53.3811 40.165 52.9674 40.165H34.2987C33.8849 40.165 33.5487 39.8288 33.5487 39.415C33.5487 39.0013 33.8849 38.665 34.2987 38.665H52.9674C53.3811 38.665 53.7174 39.0013 53.7174 39.415ZM53.7174 46.3975C53.7174 46.8113 53.3811 47.1475 52.9674 47.1475H35.7274C35.3137 47.1475 34.9774 46.8113 34.9774 46.3975C34.9774 45.9838 35.3137 45.6475 35.7274 45.6475H52.9674C53.3811 45.6475 53.7174 45.9825 53.7174 46.3975ZM53.7174 53.3788C53.7174 53.7925 53.3811 54.1288 52.9674 54.1288H34.3137C33.8999 54.1288 33.5637 53.7925 33.5637 53.3788C33.5637 52.965 33.8999 52.6288 34.3137 52.6288H52.9674C53.3811 52.6288 53.7174 52.965 53.7174 53.3788ZM42.2474 33.1838H48.3186C48.7324 33.1838 49.0686 32.8475 49.0686 32.4338V22.3675C49.0686 21.9538 48.7324 21.6175 48.3186 21.6175H42.9974V16.12C42.9974 15.7063 42.6612 15.37 42.2474 15.37H36.1762C35.7624 15.37 35.4262 15.7063 35.4262 16.12V23.3675H30.1049C29.6912 23.3675 29.3549 23.7038 29.3549 24.1175V32.4325C29.3549 32.8463 29.6912 33.1825 30.1049 33.1825H36.1762H42.2474V33.1838ZM47.5686 23.1175V31.6838H42.9974V23.1175H47.5686ZM36.9262 16.87H41.4974V31.6825H36.9262V16.87ZM30.8549 24.8675H35.4262V31.6825H30.8549V24.8675ZM29.7837 46.415C29.7837 39.875 24.4624 34.5538 17.9237 34.5538C11.3837 34.5538 6.0624 39.875 6.0624 46.415C6.0624 52.955 11.3837 58.2763 17.9237 58.2763C24.4637 58.2763 29.7837 52.955 29.7837 46.415ZM7.5624 46.415C7.5624 40.7025 12.2099 36.0538 17.9237 36.0538C23.6374 36.0538 28.2837 40.7013 28.2837 46.415C28.2837 52.1288 23.6362 56.7763 17.9237 56.7763C12.2112 56.7763 7.5624 52.1288 7.5624 46.415Z" fill="white"/>
<path d="M18.9735 51.9909C18.8699 51.9903 18.7675 51.9688 18.6727 51.9278C18.5779 51.8867 18.4927 51.827 18.4224 51.7523L14.219 47.3119C14.0787 47.1728 14 46.9849 14 46.789C14 46.5932 14.0787 46.4052 14.219 46.2661C14.3558 46.1406 14.5364 46.0716 14.7234 46.0734H16.8064C17.1574 46.0673 17.4995 45.9643 17.7935 45.7761C18.0876 45.5879 18.3217 45.3221 18.4691 45.0092H15.4707C15.2857 44.9889 15.1148 44.9024 14.9907 44.7661C14.8666 44.6299 14.798 44.4535 14.798 44.2707C14.798 44.0878 14.8666 43.9114 14.9907 43.7752C15.1148 43.6389 15.2857 43.5524 15.4707 43.5321H18.5158C18.3671 43.2209 18.1324 42.9571 17.8384 42.7705C17.5445 42.584 17.2031 42.4823 16.8531 42.4771H14.7701C14.5852 42.4568 14.4143 42.3702 14.2902 42.234C14.1661 42.0977 14.0975 41.9213 14.0975 41.7385C14.0975 41.5557 14.1661 41.3793 14.2902 41.2431C14.4143 41.1068 14.5852 41.0203 14.7701 41H21.3087C21.4936 41.0203 21.6645 41.1068 21.7886 41.2431C21.9127 41.3793 21.9813 41.5557 21.9813 41.7385C21.9813 41.9213 21.9127 42.0977 21.7886 42.234C21.6645 42.3702 21.4936 42.4568 21.3087 42.4771H19.6367C19.8534 42.7984 20.0085 43.156 20.0944 43.5321H21.3273C21.5123 43.5524 21.6832 43.6389 21.8073 43.7752C21.9314 43.9114 22 44.0878 22 44.2707C22 44.4535 21.9314 44.6299 21.8073 44.7661C21.6832 44.9024 21.5123 44.9889 21.3273 45.0092H20.1037C19.9331 45.7308 19.5191 46.3745 18.929 46.8358C18.3389 47.2971 17.6073 47.549 16.8531 47.5505H16.4982L19.5713 50.7982C19.711 50.9358 19.7895 51.1222 19.7895 51.3165C19.7895 51.5109 19.711 51.6973 19.5713 51.8349C19.4882 51.9003 19.392 51.9479 19.2891 51.9748C19.1862 52.0016 19.0787 52.0071 18.9735 51.9909Z" fill="white"/>
</svg>
