<svg width="64" height="64" viewBox="0 0 64 64" fill="none" xmlns="http://www.w3.org/2000/svg">
<path d="M31.5996 0C33.9196 0 36.13 0.798252 38 2.31055C38.4599 2.68857 38.8601 3.07729 39.25 3.50781C39.6799 3.9803 40.0598 4.49481 40.4297 5.07227C40.8196 5.7023 41.1502 6.35336 41.4102 7.02539C41.7101 7.81298 41.9196 8.63257 42.0596 9.47266C42.0695 9.48309 42.0895 9.4834 42.1094 9.4834C50.6793 13.7472 56.2197 22.9259 56.2197 32.8818C56.2197 35.6648 55.7799 38.3743 54.96 40.9893V41C60.1598 41.5147 64 44.0457 64 47.1963V57.6982C64 61.2269 59.1698 63.9989 53 63.999C48 63.999 43.88 62.1824 42.5 59.6094C41.12 62.1823 36.9999 63.999 32 63.999C27 63.999 22.88 62.1824 21.5 59.6094C20.12 62.1824 15.9999 63.999 11 63.999C4.83004 63.999 0 61.2269 0 57.6982V47.1963C0 44.2138 3.4599 41.7774 8.25977 41.0947C7.41977 38.4482 6.96973 35.6964 6.96973 32.8818C6.96975 22.8524 12.5198 13.726 21.1396 9.47266C21.1996 9.09463 21.2801 8.71664 21.3701 8.37012C22.6401 3.44476 26.8397 9.59519e-05 31.5996 0ZM19.9902 56.0811C18.0203 57.6878 14.7601 58.7275 10.9902 58.7275C7.22039 58.7275 3.96024 57.6878 1.99023 56.0811V57.6777C1.99084 59.6625 5.6907 61.8779 10.9902 61.8779C16.2896 61.8778 19.9896 59.6625 19.9902 57.6777V56.0811ZM40.9902 56.0811C39.0203 57.6878 35.76 58.7275 31.9902 58.7275C28.2204 58.7275 24.9603 57.6877 22.9902 56.0811V57.6777C22.9908 59.6625 26.6907 61.8779 31.9902 61.8779C37.2895 61.8778 40.9896 59.6624 40.9902 57.6777V56.0811ZM61.9893 56.0811C60.0192 57.6877 56.7591 58.7275 52.9893 58.7275C49.2195 58.7275 45.9592 57.6878 43.9893 56.0811V57.6777C43.9899 59.6624 47.6899 61.8778 52.9893 61.8779C58.2888 61.8779 61.9887 59.6625 61.9893 57.6777V56.0811ZM20 50.8408C18.03 52.4476 14.7699 53.4873 11 53.4873C7.23015 53.4873 3.97001 52.4475 2 50.8408V52.4365C2 54.4214 5.70003 56.6377 11 56.6377C16.2999 56.6377 20 54.4214 20 52.4365V50.8408ZM41 50.8408C39.03 52.4476 35.7699 53.4873 32 53.4873C28.2302 53.4873 24.97 52.4475 23 50.8408V52.4365C23 54.4214 26.7 56.6377 32 56.6377C37.2999 56.6376 41 54.4214 41 52.4365V50.8408ZM62 50.8408C60.0301 52.4476 56.7698 53.4872 53 53.4873C49.2303 53.4873 45.97 52.4475 44 50.8408V52.4365C44 54.4214 47.7 56.6377 53 56.6377C58.2998 56.6376 62 54.4214 62 52.4365V50.8408ZM41 45.5898C39.03 47.1966 35.7698 48.2363 32 48.2363C28.2302 48.2363 24.97 47.1965 23 45.5898V47.1855C23 49.1704 26.7 51.3867 32 51.3867C37.2999 51.3867 41 49.1704 41 47.1855V45.5898ZM53 42.9854C47.7002 42.9854 44.0002 45.2007 44 47.1855C44 49.1704 47.7 51.3867 53 51.3867C58.2998 51.3866 62 49.1704 62 47.1855C61.9998 45.2007 58.2997 42.9854 53 42.9854ZM10.9902 42.9746C5.69062 42.9746 1.99073 45.19 1.99023 47.1748C1.99023 49.1597 5.69027 51.376 10.9902 51.376C16.29 51.3759 19.9902 49.1597 19.9902 47.1748C19.9897 45.1901 16.2897 42.9747 10.9902 42.9746ZM17.6201 46.6602C17.9 46.6603 18.1201 46.8917 18.1201 47.1855C18.1201 48.9913 14.4299 49.8105 11 49.8105C7.57002 49.8105 3.87989 48.9913 3.87988 47.1855C3.87988 46.8916 4.09988 46.6602 4.37988 46.6602C4.65988 46.6602 4.87988 46.8916 4.87988 47.1855C4.8799 47.742 7.20004 48.7607 11 48.7607C14.7999 48.7607 17.1201 47.742 17.1201 47.1855C17.1201 46.8916 17.3401 46.6602 17.6201 46.6602ZM59.6201 46.6602C59.9 46.6603 60.1201 46.8917 60.1201 47.1855C60.1201 48.9913 56.4299 49.8105 53 49.8105C49.57 49.8105 45.8799 48.9913 45.8799 47.1855C45.8799 46.8916 46.0999 46.6602 46.3799 46.6602C46.6599 46.6602 46.8799 46.8916 46.8799 47.1855C46.8799 47.742 49.2 48.7607 53 48.7607C56.7999 48.7607 59.1201 47.742 59.1201 47.1855C59.1201 46.8916 59.3401 46.6602 59.6201 46.6602ZM32.5898 40.8848C32.5897 41.4622 32.1397 41.9346 31.5898 41.9346C31.0399 41.9346 30.59 41.4622 30.5898 40.8848V37.7969C26.06 38.1434 23.0001 40.1282 23 41.9346C23 43.9195 26.7 46.1357 32 46.1357C37.2999 46.1357 41 43.8459 41 41.9346C40.9999 40.0232 37.5697 37.9017 32.5898 37.7441V40.8848ZM38.6201 41.4092C38.9 41.4094 39.1201 41.6407 39.1201 41.9346C39.12 43.7403 35.4299 44.5595 32 44.5596C28.5701 44.5596 24.88 43.7403 24.8799 41.9346C24.8799 41.6406 25.0999 41.4092 25.3799 41.4092C25.6599 41.4092 25.8799 41.6406 25.8799 41.9346C25.8801 42.491 28.2002 43.5098 32 43.5098C35.7997 43.5097 38.1199 42.491 38.1201 41.9346C38.1201 41.6406 38.3401 41.4092 38.6201 41.4092ZM42.1895 11.8779C42.1695 12.1509 42.1696 12.4135 42.1396 12.6865C42.0796 13.2746 41.9693 13.8736 41.8193 14.4512C41.6193 15.2597 41.3399 16.0267 41 16.7197C39.16 20.5212 35.5499 22.8837 31.5801 22.8838C30.0201 22.8838 28.5098 22.5166 27.0898 21.792C26.4299 21.4664 25.7696 21.036 25.1396 20.5215C24.6997 20.1539 24.2894 19.7646 23.8994 19.334C22.6697 17.9374 21.7695 16.2048 21.3096 14.3252C21.1296 13.5585 21.0295 12.823 20.9795 12.1299V11.8779C13.6298 15.9842 8.96007 24.0496 8.95996 32.8711H8.94043C8.94043 35.6436 9.41008 38.3323 10.29 40.9053C10.5199 40.8948 10.7497 40.8848 10.9795 40.8848C15.4792 40.8848 19.2594 42.3546 20.9795 44.5283V41.9346C20.9796 38.6791 25.0897 36.0742 30.5693 35.6855V34.8457C29.8994 34.9717 29.0197 35.0869 28.04 35.0869C26.41 35.0869 24.5297 34.7617 22.9697 33.6064C19.4599 31.0124 19.1301 25.3939 19.1201 25.1523C19.1001 24.6693 19.3901 24.2283 19.8301 24.0918C20.0524 24.0281 25.2006 22.4224 28.7197 25.0156C30.1197 26.0448 31.0101 27.5578 31.5801 29.0176C32.1601 27.5578 33.0502 26.0448 34.4502 25.0156C37.9702 22.422 43.1199 24.0288 43.3398 24.0918C43.7798 24.2284 44.0698 24.6693 44.0498 25.1523C44.0298 25.3939 43.7097 31.0232 40.1797 33.6172C38.6197 34.7618 36.7393 35.0869 35.1094 35.0869C34.1297 35.0869 33.25 34.9717 32.5801 34.8457V35.6436C38.4597 35.8117 42.989 38.5004 42.9893 41.9238V44.5186C44.6992 42.3656 48.4201 40.9055 52.8701 40.874C53.75 38.3117 54.2099 35.6232 54.21 32.8613C54.21 24.0921 49.5194 15.9737 42.1895 11.8779ZM27.5703 26.7275C25.5503 25.2362 22.6197 25.6044 21.2197 25.8984C21.4398 27.3898 22.1201 30.4138 24.1299 31.8945C26.1599 33.3858 29.0902 33.0187 30.4902 32.7246C30.2702 31.2334 29.5901 28.2084 27.5703 26.7275ZM41.96 25.9082C40.56 25.6141 37.6196 25.247 35.5996 26.7383C33.5797 28.2191 32.8997 31.2439 32.6797 32.7246C34.0797 33.0187 37.0201 33.3858 39.04 31.8945C41.0698 30.4032 41.74 27.3889 41.96 25.9082ZM31.5898 2.0791C27.7299 2.0791 24.3201 4.89387 23.29 8.91602L23.2803 8.90527C23.1603 9.35685 23.0698 9.82989 23.0098 10.376C22.9698 10.7119 22.9502 11.0584 22.9502 11.4258C22.9502 11.5413 22.9697 11.6472 22.9697 11.7627L22.9902 12.0146C23.0202 12.5817 23.1 13.191 23.25 13.8105C23.63 15.3437 24.3702 16.7721 25.3701 17.9062C25.69 18.2527 26.0198 18.5783 26.3896 18.8828C26.8996 19.3029 27.42 19.6496 27.96 19.9121C29.1199 20.5002 30.3399 20.7939 31.5898 20.7939C34.8097 20.7939 37.7295 18.8723 39.2295 15.7744C39.5095 15.2073 39.7294 14.5872 39.8994 13.915C40.0294 13.432 40.1102 12.9489 40.1602 12.4658C40.2001 12.1088 40.2197 11.7725 40.2197 11.4365C40.2197 10.1869 39.9998 8.9684 39.5498 7.80273C39.3399 7.25683 39.0699 6.72145 38.75 6.20703C38.45 5.74494 38.14 5.32412 37.79 4.93555C37.4701 4.57858 37.1296 4.2537 36.7598 3.94922C35.2498 2.73099 33.4598 2.07911 31.5898 2.0791ZM35.3086 5.88086C35.4933 5.90263 35.6641 5.99518 35.7881 6.14062C35.9122 6.28632 35.9805 6.47542 35.9805 6.6709C35.9805 6.86624 35.912 7.05455 35.7881 7.2002C35.6641 7.34578 35.4934 7.43916 35.3086 7.46094H33.6357C33.8524 7.80456 34.0079 8.18672 34.0938 8.58887H35.3271C35.512 8.61063 35.6826 8.70307 35.8066 8.84863C35.9307 8.99433 35.999 9.18342 35.999 9.37891C35.9989 9.57422 35.9306 9.76263 35.8066 9.9082C35.6826 10.0538 35.512 10.1462 35.3271 10.168H34.1035C33.9329 10.9394 33.5187 11.6278 32.9287 12.1211C32.3386 12.6144 31.6067 12.8842 30.8525 12.8857H30.498L33.5703 16.3584C33.7101 16.5055 33.7891 16.7053 33.7891 16.9131C33.7889 17.1207 33.7099 17.3198 33.5703 17.4668C33.4874 17.5365 33.3917 17.5875 33.2891 17.6162C33.1861 17.6449 33.0779 17.6512 32.9727 17.6338C32.8692 17.6331 32.7666 17.6102 32.6719 17.5664C32.5772 17.5226 32.4921 17.4586 32.4219 17.3789L28.2188 12.6309C28.0784 12.4821 28 12.2807 28 12.0713C28 11.8619 28.0784 11.6605 28.2188 11.5117C28.3554 11.3778 28.5358 11.3039 28.7227 11.3057H30.8057C31.1566 11.2992 31.4989 11.1895 31.793 10.9883C32.087 10.787 32.3214 10.5025 32.4688 10.168H29.4697C29.2849 10.1462 29.1142 10.0538 28.9902 9.9082C28.8663 9.76263 28.798 9.57421 28.7979 9.37891C28.7979 9.18343 28.8661 8.99432 28.9902 8.84863C29.1142 8.70307 29.2849 8.61066 29.4697 8.58887H32.5156C32.3669 8.25614 32.1318 7.97388 31.8379 7.77441C31.5439 7.57495 31.2025 7.46654 30.8525 7.46094H28.7695C28.5846 7.43923 28.4141 7.34587 28.29 7.2002C28.166 7.05453 28.0967 6.86632 28.0967 6.6709C28.0967 6.47542 28.1659 6.28632 28.29 6.14062C28.4141 5.99519 28.5848 5.90254 28.7695 5.88086H35.3086Z" fill="white"/>
</svg>
