<svg xmlns="http://www.w3.org/2000/svg" version="1.1" xmlns:xlink="http://www.w3.org/1999/xlink" width="512" height="512" x="0" y="0" viewBox="0 0 56 56" style="enable-background:new 0 0 512 512" xml:space="preserve" class=""><g><g fill="#000" fill-rule="nonzero"><path d="M20 44h12.051A12.889 12.889 0 0 1 34 38.1V31H20zm4-7h6a1 1 0 0 1 0 2h-6a1 1 0 0 1 0-2z" fill="#ffffff" opacity="1" data-original="#000000"></path><path d="M5 46a3 3 0 0 1-3-3V17a3 3 0 0 1 3-3h28a3 3 0 0 1 3 3v18.641a13.052 13.052 0 0 1 2-1.578V2a2 2 0 0 0-2-2H2a2 2 0 0 0-2 2v44a2 2 0 0 0 2 2h30.363a12.92 12.92 0 0 1-.312-2zM2 4a2 2 0 0 1 2-2h30a2 2 0 0 1 2 2v6a2 2 0 0 1-2 2H4a2 2 0 0 1-2-2z" fill="#ffffff" opacity="1" data-original="#000000"></path><path d="M34 17a1 1 0 0 0-1-1H20v13h14zm-4 8h-6a1 1 0 0 1 0-2h6a1 1 0 0 1 0 2zm0-4h-6a1 1 0 0 1 0-2h6a1 1 0 0 1 0 2zM17.5 10 22 4h-3.5L14 10zM22.5 10 27 4h-2.5L20 10zM11.5 10 16 4h-3.5L8 10zM10 4H4v6h1.5zM34.002 10 34 4h-4.5L25 10zM43.618 48l-1.709 3.411c2.21.79 4.639.7 6.785-.25L47.341 48z" fill="#ffffff" opacity="1" data-original="#000000"></path><path d="M45 34c-6.075 0-11 4.925-11 11s4.925 11 11 11 11-4.925 11-11c-.007-6.072-4.928-10.993-11-11zm6.6 17.8a11 11 0 0 1-13.19 0 1 1 0 1 1 1.19-1.6c.167.124.349.214.522.324L41.38 48h-2.243a1 1 0 0 1 0-2H40v-2h-1a1 1 0 0 1 0-2h8.549l.457-4.11a1 1 0 1 1 1.988.22l-.971 8.74 1.424 3.327A1 1 0 0 1 51.6 51.8zM4 43a1 1 0 0 0 1 1h13V31H4zm4-6h2v-2a1 1 0 0 1 2 0v2h2a1 1 0 0 1 0 2h-2v2a1 1 0 0 1-2 0v-2H8a1 1 0 0 1 0-2z" fill="#ffffff" opacity="1" data-original="#000000"></path><path d="M47.327 44H42v2h5.104zM18 16H5a1 1 0 0 0-1 1v12h14zm-3.293 8.293a1 1 0 1 1-1.414 1.414L11 23.414l-2.293 2.293a1 1 0 0 1-1.414-1.414L9.586 22l-2.293-2.293a1 1 0 0 1 1.414-1.414L11 20.586l2.293-2.293a1 1 0 0 1 1.414 1.414L12.414 22z" fill="#ffffff" opacity="1" data-original="#000000"></path></g></g></svg>