<svg width="62" height="62" viewBox="0 0 62 62" fill="none" xmlns="http://www.w3.org/2000/svg">
<g clip-path="url(#clip0_2892_507)">
<path d="M5.80722 49.8252V3.87135C5.80722 3.10127 6.11313 2.36274 6.65766 1.81821C7.20219 1.27368 7.94072 0.967773 8.7108 0.967773H45.2861C46.0562 0.967773 46.7947 1.27368 47.3393 1.81821C47.8838 2.36274 48.1897 3.10127 48.1897 3.87135V27.0999C48.1675 27.3064 48.0697 27.4975 47.9151 27.6362C47.7606 27.775 47.5602 27.8518 47.3525 27.8518C47.1448 27.8518 46.9444 27.775 46.7899 27.6362C46.6353 27.4975 46.5375 27.3064 46.5153 27.0999V3.87135C46.5153 3.54702 46.3871 3.23583 46.1587 3.00559C45.9303 2.77535 45.6201 2.64472 45.2958 2.64217H8.7108C8.39074 2.64978 8.08651 2.78294 7.86379 3.01291C7.64106 3.24288 7.5177 3.55121 7.52033 3.87135V49.8252C7.52033 50.0485 7.43162 50.2627 7.2737 50.4206C7.11579 50.5785 6.90162 50.6673 6.6783 50.6673C6.45497 50.6673 6.2408 50.5785 6.08289 50.4206C5.92497 50.2627 5.83626 50.0485 5.83626 49.8252H5.80722ZM18.4862 22.0961C16.815 22.0961 15.1814 21.6006 13.7919 20.6721C12.4024 19.7437 11.3194 18.4241 10.6799 16.8801C10.0404 15.3362 9.87309 13.6373 10.1991 11.9983C10.5251 10.3593 11.3299 8.85375 12.5115 7.67208C13.6932 6.49041 15.1987 5.68569 16.8378 5.35966C18.4768 5.03364 20.1757 5.20097 21.7196 5.84048C23.2635 6.48 24.5831 7.56298 25.5116 8.95247C26.44 10.342 26.9356 11.9756 26.9356 13.6467C26.933 15.8868 26.042 18.0345 24.458 19.6185C22.8739 21.2025 20.7263 22.0935 18.4862 22.0961ZM11.7112 13.6467C11.6969 14.8947 12.0322 16.1217 12.679 17.1891C13.0304 16.2759 13.5945 15.4597 14.3244 14.8081C14.8169 14.3637 15.3752 13.998 15.9794 13.7241C15.6145 13.3175 15.354 12.8282 15.2203 12.2984C15.0867 11.7686 15.0839 11.2143 15.2123 10.6832C15.3407 10.1521 15.5963 9.66024 15.9572 9.25C16.318 8.83975 16.7733 8.52345 17.2837 8.32839C17.794 8.13332 18.3442 8.06534 18.8867 8.13032C19.4292 8.19529 19.9477 8.39127 20.3976 8.70134C20.8475 9.01141 21.2152 9.42627 21.4689 9.91013C21.7227 10.394 21.855 10.9323 21.8543 11.4787C21.8589 12.3087 21.5514 13.1101 20.9929 13.7241C21.5972 13.998 22.1554 14.3637 22.6479 14.8081C23.3629 15.4647 23.9133 16.2803 24.2546 17.1891C24.8073 16.2972 25.1453 15.2891 25.242 14.2444C25.3386 13.1996 25.1913 12.1466 24.8116 11.1685C24.4319 10.1904 23.8302 9.31377 23.054 8.60785C22.2777 7.90192 21.3481 7.38594 20.3384 7.10057C19.3287 6.81521 18.2665 6.76826 17.2356 6.96343C16.2047 7.15859 15.2331 7.59054 14.3976 8.22522C13.5621 8.85991 12.8854 9.67998 12.4209 10.6208C11.9564 11.5616 11.7167 12.5975 11.7208 13.6467H11.7112ZM20.1702 11.4787C20.1702 11.1437 20.0709 10.8162 19.8848 10.5377C19.6987 10.2592 19.4341 10.0421 19.1246 9.91388C18.8152 9.78569 18.4746 9.75215 18.146 9.8175C17.8175 9.88285 17.5157 10.0442 17.2788 10.281C17.0419 10.5179 16.8806 10.8197 16.8153 11.1483C16.7499 11.4768 16.7835 11.8174 16.9117 12.1269C17.0399 12.4364 17.2569 12.7009 17.5355 12.887C17.814 13.0731 18.1415 13.1725 18.4765 13.1725C18.7001 13.175 18.9219 13.133 19.1291 13.049C19.3363 12.9649 19.5247 12.8404 19.6833 12.6827C19.8419 12.525 19.9674 12.3374 20.0527 12.1307C20.138 11.9239 20.1812 11.7023 20.1799 11.4787H20.1702ZM18.4862 20.412C20.1168 20.4136 21.6924 19.8219 22.9189 18.7473C22.7766 17.6725 22.2485 16.686 21.4331 15.9714C20.6177 15.2569 19.5704 14.8629 18.4862 14.8629C17.4019 14.8629 16.3547 15.2569 15.5392 15.9714C14.7238 16.686 14.1957 17.6725 14.0534 18.7473C15.2826 19.8173 16.8564 20.4083 18.4862 20.412ZM41.8406 15.3211C41.8418 15.211 41.8213 15.1017 41.78 14.9996C41.7387 14.8975 41.6776 14.8046 41.6002 14.7263C41.5228 14.6479 41.4306 14.5858 41.329 14.5433C41.2274 14.5009 41.1183 14.4791 41.0082 14.4791H29.7423C29.519 14.4791 29.3048 14.5678 29.1469 14.7257C28.989 14.8836 28.9003 15.0978 28.9003 15.3211C28.9003 15.5444 28.989 15.7586 29.1469 15.9165C29.3048 16.0744 29.519 16.1631 29.7423 16.1631H41.0082C41.1183 16.1631 41.2274 16.1413 41.329 16.0989C41.4306 16.0564 41.5228 15.9943 41.6002 15.9159C41.6776 15.8376 41.7387 15.7447 41.78 15.6426C41.8213 15.5405 41.8418 15.4312 41.8406 15.3211ZM41.0082 9.46556C41.2147 9.44332 41.4057 9.34554 41.5445 9.191C41.6833 9.03646 41.7601 8.83608 41.7601 8.62837C41.7601 8.42065 41.6833 8.22027 41.5445 8.06573C41.4057 7.91119 41.2147 7.81341 41.0082 7.79117H35.0365C34.83 7.81341 34.639 7.91119 34.5002 8.06573C34.3614 8.22027 34.2846 8.42065 34.2846 8.62837C34.2846 8.83608 34.3614 9.03646 34.5002 9.191C34.639 9.34554 34.83 9.44332 35.0365 9.46556H41.0082ZM28.91 11.9723C28.9087 12.0824 28.9293 12.1917 28.9705 12.2938C29.0118 12.3959 29.0729 12.4888 29.1503 12.5671C29.2277 12.6455 29.3199 12.7076 29.4216 12.7501C29.5232 12.7925 29.6322 12.8144 29.7423 12.8143H41.0082C41.2147 12.7921 41.4057 12.6943 41.5445 12.5398C41.6833 12.3852 41.7601 12.1849 41.7601 11.9772C41.7601 11.7694 41.6833 11.5691 41.5445 11.4145C41.4057 11.26 41.2147 11.1622 41.0082 11.14H29.7423C29.5216 11.14 29.3099 11.2276 29.1538 11.3837C28.9977 11.5398 28.91 11.7516 28.91 11.9723ZM57.9457 49.7188C57.9477 51.258 57.4762 52.7607 56.5949 54.0228C55.7137 55.2849 54.4655 56.2453 53.0198 56.7738C51.574 57.3022 50.0007 57.373 48.5133 56.9766C47.0259 56.5802 45.6965 55.7359 44.7054 54.558H12.3693C12.2518 54.5707 12.1329 54.5585 12.0205 54.5222C11.908 54.4859 11.8044 54.4263 11.7165 54.3473C11.6286 54.2683 11.5583 54.1718 11.5101 54.0638C11.462 53.9559 11.4371 53.839 11.4371 53.7208C11.4371 53.6027 11.462 53.4858 11.5101 53.3779C11.5583 53.2699 11.6286 53.1733 11.7165 53.0944C11.8044 53.0154 11.908 52.9558 12.0205 52.9195C12.1329 52.8832 12.2518 52.871 12.3693 52.8836H43.5537C43.0901 51.8967 42.852 50.8189 42.8568 49.7284C42.8552 48.4385 43.1866 47.1701 43.8191 46.0459C44.4516 44.9217 45.3636 43.9798 46.4669 43.3115V36.9624L41.2598 45.9828C41.1942 46.097 41.1026 46.1942 40.9926 46.2665C40.8826 46.3389 40.7571 46.3844 40.6262 46.3995C40.4954 46.4146 40.3628 46.3987 40.2392 46.3532C40.1156 46.3078 40.0044 46.2339 39.9145 46.1377L32.7524 38.298L21.7382 50.977C21.5987 51.1315 21.4075 51.2296 21.2007 51.2528C20.9938 51.276 20.7856 51.2226 20.6154 51.1028L14.8083 46.9023L3.18433 59.6199C3.10505 59.705 3.00919 59.7729 2.90266 59.8195C2.79613 59.8661 2.68118 59.8904 2.5649 59.8909C2.35705 59.8869 2.15767 59.8078 2.00354 59.6683C1.83932 59.5199 1.74014 59.3128 1.72746 59.0918C1.71478 58.8708 1.78962 58.6538 1.93579 58.4875L14.0437 45.2279C14.18 45.0744 14.3687 44.9773 14.5728 44.9558C14.777 44.9344 14.9818 44.99 15.147 45.1118L20.9542 49.2929L32.1426 36.4881C32.2224 36.4007 32.3196 36.3308 32.4279 36.283C32.5362 36.2353 32.6533 36.2106 32.7717 36.2106C32.8901 36.2106 33.0072 36.2353 33.1155 36.283C33.2239 36.3308 33.321 36.4007 33.4008 36.4881L40.4178 44.1632L52.6031 23.064L51.945 23.364C51.8433 23.4154 51.732 23.4453 51.6183 23.452C51.5045 23.4586 51.3906 23.4418 51.2835 23.4026C51.1765 23.3634 51.0787 23.3027 50.9961 23.2241C50.9135 23.1456 50.8479 23.0509 50.8035 22.946C50.759 22.841 50.7365 22.7281 50.7374 22.6141C50.7384 22.5001 50.7627 22.3876 50.8089 22.2834C50.8552 22.1792 50.9223 22.0857 51.0062 22.0085C51.09 21.9313 51.1889 21.8722 51.2965 21.8348L54.3356 20.4411C54.4542 20.3815 54.5851 20.3504 54.7179 20.3504C54.8507 20.3504 54.9816 20.3815 55.1002 20.4411C55.2178 20.5063 55.3174 20.5997 55.39 20.7129C55.4626 20.826 55.5061 20.9555 55.5164 21.0895L55.8358 24.419C55.8459 24.5283 55.8345 24.6385 55.802 24.7434C55.7696 24.8483 55.7168 24.9457 55.6467 25.0302C55.5766 25.1147 55.4906 25.1845 55.3935 25.2358C55.2964 25.287 55.1902 25.3186 55.0808 25.3287C54.9715 25.3389 54.8613 25.3275 54.7564 25.295C54.6515 25.2626 54.5541 25.2098 54.4696 25.1397C54.3851 25.0696 54.3153 24.9835 54.264 24.8865C54.2128 24.7894 54.1812 24.6831 54.1711 24.5738L54.1033 23.8576L48.2284 34.0201V42.5856C48.9454 42.3595 49.693 42.2453 50.4448 42.2469C52.4351 42.2495 54.3429 43.0419 55.7493 44.4501C57.1557 45.8583 57.9457 47.7672 57.9457 49.7575V49.7188ZM56.2713 49.7188C56.2713 48.5702 55.9307 47.4475 55.2926 46.4925C54.6545 45.5375 53.7476 44.7932 52.6865 44.3536C51.6253 43.9141 50.4577 43.7991 49.3312 44.0232C48.2048 44.2473 47.17 44.8003 46.3579 45.6125C45.5457 46.4246 44.9927 47.4594 44.7686 48.5858C44.5445 49.7123 44.6595 50.8799 45.0991 51.941C45.5386 53.0022 46.2829 53.9091 47.2379 54.5472C48.1929 55.1853 49.3156 55.5259 50.4642 55.5259C51.9926 55.5132 53.4543 54.8984 54.5324 53.8149C55.6105 52.7314 56.2179 51.2666 56.2229 49.7381L56.2713 49.7188ZM57.0069 40.0208H57.3456C57.4562 40.0049 57.5626 39.9674 57.6587 39.9104C57.7547 39.8534 57.8386 39.7781 57.9056 39.6886C57.9726 39.5992 58.0213 39.4975 58.0489 39.3892C58.0765 39.281 58.0826 39.1684 58.0667 39.0578C58.0508 38.9472 58.0133 38.8409 57.9563 38.7448C57.8993 38.6487 57.8239 38.5648 57.7345 38.4978C57.6451 38.4309 57.5434 38.3822 57.4351 38.3545C57.3269 38.3269 57.2142 38.3209 57.1037 38.3368L53.8904 38.6561C53.7525 38.6704 53.6203 38.7186 53.5055 38.7962C53.3907 38.8739 53.2968 38.9787 53.2322 39.1014C53.1678 39.2237 53.1341 39.3599 53.1341 39.4982C53.1341 39.6365 53.1678 39.7726 53.2322 39.895L54.7131 42.5856C54.7648 42.6826 54.8353 42.7683 54.9204 42.8378C55.0054 42.9074 55.1034 42.9594 55.2087 42.9909C55.314 43.0224 55.4244 43.0327 55.5337 43.0213C55.643 43.0099 55.749 42.977 55.8455 42.9244C55.9427 42.8717 56.0286 42.8003 56.0983 42.7144C56.168 42.6284 56.22 42.5296 56.2515 42.4235C56.2829 42.3175 56.2932 42.2063 56.2816 42.0962C56.2701 41.9862 56.237 41.8795 56.1842 41.7823L56.0003 41.4629C57.2982 42.3384 58.3727 43.5059 59.1378 44.8718C59.903 46.2376 60.3373 47.7638 60.406 49.3278C60.4747 50.8919 60.1758 52.4502 59.5334 53.8779C58.891 55.3056 57.9229 56.5628 56.7068 57.5487C56.5341 57.689 56.4239 57.8919 56.4004 58.1132C56.3768 58.3344 56.4417 58.556 56.581 58.7295C56.6591 58.8263 56.7579 58.9044 56.8701 58.9579C56.9823 59.0115 57.1051 59.0393 57.2295 59.0392C57.4226 59.0401 57.6104 58.9752 57.7618 58.8553C59.1799 57.7026 60.3085 56.2341 61.0575 54.5671C61.8064 52.9002 62.1548 51.0811 62.0749 49.2554C61.9949 47.4297 61.4888 45.648 60.597 44.0529C59.7052 42.4578 58.4525 41.0935 56.9391 40.0692L57.0069 40.0208ZM44.5215 57.8197C44.0346 57.4685 43.581 57.0732 43.1665 56.6389C43.0909 56.5595 43.0004 56.4957 42.9001 56.4513C42.7998 56.4068 42.6918 56.3826 42.5821 56.3799C42.4725 56.3772 42.3634 56.3961 42.2611 56.4356C42.1587 56.475 42.0652 56.5343 41.9857 56.6099C41.9063 56.6855 41.8425 56.7761 41.7981 56.8763C41.7536 56.9766 41.7294 57.0846 41.7267 57.1943C41.724 57.3039 41.7429 57.413 41.7824 57.5154C41.8218 57.6177 41.8811 57.7112 41.9567 57.7907C42.4385 58.2999 42.9667 58.7633 43.5343 59.1747C43.7056 59.2983 43.9172 59.353 44.1269 59.3279C44.3367 59.3028 44.5294 59.1997 44.6667 59.0392C44.7394 58.9505 44.7935 58.8481 44.8256 58.738C44.8577 58.6279 44.8673 58.5124 44.8538 58.3986C44.8402 58.2847 44.8038 58.1747 44.7467 58.0752C44.6896 57.9758 44.613 57.8889 44.5215 57.8197ZM54.0259 59.0392C53.4699 59.252 52.8968 59.4171 52.3128 59.5328C52.1116 59.5763 51.9333 59.692 51.8117 59.858C51.69 60.0241 51.6333 60.2289 51.6524 60.4338C51.6715 60.6388 51.7649 60.8296 51.9151 60.9703C52.0653 61.111 52.2619 61.1919 52.4676 61.1975H52.6322C53.3154 61.0618 53.9857 60.8675 54.6356 60.6168C54.8448 60.536 55.0134 60.3753 55.1041 60.1702C55.1949 59.9651 55.2004 59.7323 55.1196 59.5231C55.0387 59.3139 54.878 59.1454 54.6729 59.0547C54.4678 58.9639 54.2351 58.9584 54.0259 59.0392ZM49.1866 59.6393C48.5482 59.5596 47.9193 59.4169 47.309 59.2134C47.102 59.1607 46.8827 59.1886 46.6955 59.2915C46.5083 59.3943 46.3672 59.5645 46.3008 59.7675C46.2344 59.9705 46.2476 60.1911 46.3377 60.3848C46.4278 60.5784 46.5882 60.7306 46.7863 60.8104C47.5019 61.0422 48.2374 61.2074 48.9833 61.304H49.0898C49.3106 61.3168 49.5274 61.2415 49.6926 61.0944C49.8577 60.9474 49.9577 60.7408 49.9706 60.52C49.9834 60.2993 49.908 60.0825 49.761 59.9173C49.614 59.7521 49.4073 59.6521 49.1866 59.6393ZM19.7153 42.5179V40.4467H19.0282C18.8074 40.4467 18.5957 40.359 18.4396 40.2029C18.2835 40.0468 18.1958 39.8351 18.1958 39.6143V33.1781C18.1958 32.9573 18.2835 32.7456 18.4396 32.5895C18.5957 32.4334 18.8074 32.3457 19.0282 32.3457H19.7153V30.2745C19.7027 30.157 19.7149 30.0381 19.7512 29.9257C19.7875 29.8132 19.8471 29.7096 19.9261 29.6217C20.005 29.5338 20.1016 29.4635 20.2096 29.4153C20.3175 29.3672 20.4344 29.3423 20.5525 29.3423C20.6707 29.3423 20.7876 29.3672 20.8955 29.4153C21.0034 29.4635 21.1 29.5338 21.179 29.6217C21.258 29.7096 21.3175 29.8132 21.3539 29.9257C21.3902 30.0381 21.4024 30.157 21.3897 30.2745V32.3457H22.0672C22.2889 32.3457 22.5016 32.4331 22.6592 32.5889C22.8169 32.7447 22.9067 32.9564 22.9093 33.1781V39.6143C22.9067 39.836 22.8169 40.0477 22.6592 40.2035C22.5016 40.3593 22.2889 40.4467 22.0672 40.4467H21.3897V42.5179C21.4024 42.6354 21.3902 42.7542 21.3539 42.8667C21.3175 42.9792 21.258 43.0827 21.179 43.1707C21.1 43.2586 21.0034 43.3289 20.8955 43.3771C20.7876 43.4252 20.6707 43.4501 20.5525 43.4501C20.4344 43.4501 20.3175 43.4252 20.2096 43.3771C20.1016 43.3289 20.005 43.2586 19.9261 43.1707C19.8471 43.0827 19.7875 42.9792 19.7512 42.8667C19.7149 42.7542 19.7027 42.6354 19.7153 42.5179ZM19.8702 38.7723H21.2349V34.0201H19.8702V38.7723ZM13.25 37.0495V34.988H12.5822C12.3589 34.988 12.1447 34.8993 11.9868 34.7413C11.8289 34.5834 11.7402 34.3692 11.7402 34.1459V27.7194C11.7402 27.496 11.8289 27.2819 11.9868 27.1239C12.1447 26.966 12.3589 26.8773 12.5822 26.8773H13.2597V24.8158C13.2471 24.6983 13.2593 24.5794 13.2956 24.467C13.3319 24.3545 13.3915 24.2509 13.4705 24.163C13.5494 24.0751 13.646 24.0048 13.7539 23.9566C13.8619 23.9085 13.9787 23.8836 14.0969 23.8836C14.2151 23.8836 14.332 23.9085 14.4399 23.9566C14.5478 24.0048 14.6444 24.0751 14.7234 24.163C14.8024 24.2509 14.8619 24.3545 14.8982 24.467C14.9345 24.5794 14.9468 24.6983 14.9341 24.8158V26.8773H15.6213C15.8429 26.8799 16.0546 26.9697 16.2105 27.1273C16.3663 27.285 16.4537 27.4977 16.4537 27.7194V34.1459C16.4537 34.3676 16.3663 34.5803 16.2105 34.7379C16.0546 34.8956 15.8429 34.9854 15.6213 34.988H14.9341V37.0495C14.9468 37.167 14.9345 37.2859 14.8982 37.3983C14.8619 37.5108 14.8024 37.6144 14.7234 37.7023C14.6444 37.7902 14.5478 37.8605 14.4399 37.9087C14.332 37.9568 14.2151 37.9817 14.0969 37.9817C13.9787 37.9817 13.8619 37.9568 13.7539 37.9087C13.646 37.8605 13.5494 37.7902 13.4705 37.7023C13.3915 37.6144 13.3319 37.5108 13.2956 37.3983C13.2593 37.2859 13.2471 37.167 13.2597 37.0495H13.25ZM13.4049 33.3136H14.7696V28.5517H13.4049V33.3136ZM26.1322 37.0495V34.988H25.4547C25.2314 34.988 25.0172 34.8993 24.8593 34.7413C24.7014 34.5834 24.6127 34.3692 24.6127 34.1459V27.7194C24.6127 27.496 24.7014 27.2819 24.8593 27.1239C25.0172 26.966 25.2314 26.8773 25.4547 26.8773H26.1322V24.8158C26.1322 24.7052 26.154 24.5957 26.1963 24.4935C26.2386 24.3914 26.3007 24.2986 26.3789 24.2204C26.457 24.1422 26.5499 24.0802 26.652 24.0378C26.7542 23.9955 26.8637 23.9737 26.9743 23.9737C27.0848 23.9737 27.1943 23.9955 27.2965 24.0378C27.3987 24.0802 27.4915 24.1422 27.5697 24.2204C27.6479 24.2986 27.7099 24.3914 27.7522 24.4935C27.7945 24.5957 27.8163 24.7052 27.8163 24.8158V26.8773H28.4938C28.7171 26.8773 28.9313 26.966 29.0892 27.1239C29.2471 27.2819 29.3358 27.496 29.3358 27.7194V34.1459C29.3358 34.3692 29.2471 34.5834 29.0892 34.7413C28.9313 34.8993 28.7171 34.988 28.4938 34.988H27.8163V37.0495C27.8163 37.1601 27.7945 37.2696 27.7522 37.3717C27.7099 37.4739 27.6479 37.5667 27.5697 37.6449C27.4915 37.7231 27.3987 37.7851 27.2965 37.8274C27.1943 37.8698 27.0848 37.8915 26.9743 37.8915C26.8637 37.8915 26.7542 37.8698 26.652 37.8274C26.5499 37.7851 26.457 37.7231 26.3789 37.6449C26.3007 37.5667 26.2386 37.4739 26.1963 37.3717C26.154 37.2696 26.1322 37.1601 26.1322 37.0495ZM26.2968 33.3136H27.6518V28.5517H26.2968V33.3136ZM39.1015 37.0495V34.988H38.4143C38.1927 34.9854 37.981 34.8956 37.8252 34.7379C37.6694 34.5803 37.582 34.3676 37.582 34.1459V27.7194C37.582 27.4977 37.6694 27.285 37.8252 27.1273C37.981 26.9697 38.1927 26.8799 38.4143 26.8773H39.1015V24.8158C39.0889 24.6983 39.1011 24.5794 39.1374 24.467C39.1737 24.3545 39.2333 24.2509 39.3122 24.163C39.3912 24.0751 39.4878 24.0048 39.5957 23.9566C39.7037 23.9085 39.8205 23.8836 39.9387 23.8836C40.0569 23.8836 40.1738 23.9085 40.2817 23.9566C40.3896 24.0048 40.4862 24.0751 40.5652 24.163C40.6442 24.2509 40.7037 24.3545 40.74 24.467C40.7763 24.5794 40.7886 24.6983 40.7759 24.8158V26.8773H41.4534C41.6767 26.8773 41.8909 26.966 42.0488 27.1239C42.2067 27.2819 42.2954 27.496 42.2954 27.7194V34.1459C42.2954 34.3692 42.2067 34.5834 42.0488 34.7413C41.8909 34.8993 41.6767 34.988 41.4534 34.988H40.7759V37.0495C40.7886 37.167 40.7763 37.2859 40.74 37.3983C40.7037 37.5108 40.6442 37.6144 40.5652 37.7023C40.4862 37.7902 40.3896 37.8605 40.2817 37.9087C40.1738 37.9568 40.0569 37.9817 39.9387 37.9817C39.8205 37.9817 39.7037 37.9568 39.5957 37.9087C39.4878 37.8605 39.3912 37.7902 39.3122 37.7023C39.2333 37.6144 39.1737 37.5108 39.1374 37.3983C39.1011 37.2859 39.0889 37.167 39.1015 37.0495ZM39.2564 33.3136H40.6501V28.5517H39.2564V33.3136ZM32.6362 31.5908V29.5196H31.9394C31.7177 29.5196 31.505 29.4322 31.3474 29.2764C31.1897 29.1205 31.0999 28.9088 31.0973 28.6872V22.2606C31.0999 22.039 31.1897 21.8273 31.3474 21.6715C31.505 21.5156 31.7177 21.4283 31.9394 21.4283H32.6169V19.3571C32.6042 19.2396 32.6164 19.1207 32.6528 19.0082C32.6891 18.8958 32.7486 18.7922 32.8276 18.7043C32.9066 18.6164 33.0032 18.546 33.1111 18.4979C33.219 18.4498 33.3359 18.4249 33.4541 18.4249C33.5723 18.4249 33.6891 18.4498 33.797 18.4979C33.905 18.546 34.0016 18.6164 34.0805 18.7043C34.1595 18.7922 34.2191 18.8958 34.2554 19.0082C34.2917 19.1207 34.3039 19.2396 34.2913 19.3571V21.4283H34.9784C35.1992 21.4283 35.4109 21.516 35.567 21.6721C35.7231 21.8282 35.8108 22.0399 35.8108 22.2606V28.6969C35.8108 28.9176 35.7231 29.1294 35.567 29.2855C35.4109 29.4416 35.1992 29.5292 34.9784 29.5292H34.2913V31.6005C34.3039 31.718 34.2917 31.8368 34.2554 31.9493C34.2191 32.0618 34.1595 32.1653 34.0805 32.2532C34.0016 32.3412 33.905 32.4115 33.797 32.4596C33.6891 32.5078 33.5723 32.5326 33.4541 32.5326C33.3359 32.5326 33.219 32.5078 33.1111 32.4596C33.0032 32.4115 32.9066 32.3412 32.8276 32.2532C32.7486 32.1653 32.6891 32.0618 32.6528 31.9493C32.6164 31.8368 32.6042 31.718 32.6169 31.6005L32.6362 31.5908ZM32.7911 27.8452H34.1558V23.093H32.7911V27.8452Z" fill="white"/>
</g>
<path d="M53.1588 48.5608C53.1267 48.532 53.0856 48.5176 53.0356 48.5176H52.1189C52.0581 48.2513 51.9438 48.0202 51.7758 47.8244H53.0248C53.0749 47.8244 53.1159 47.81 53.1482 47.7812C53.1802 47.7523 53.1962 47.7154 53.1962 47.6705V47.1794C53.1962 47.1345 53.1802 47.0976 53.1482 47.0687C53.1159 47.0399 53.0749 47.0254 53.0248 47.0254H48.5646C48.5145 47.0254 48.4735 47.0399 48.4413 47.0687C48.4092 47.0976 48.3931 47.1345 48.3931 47.1794V47.8196C48.3931 47.8613 48.41 47.8974 48.444 47.9279C48.4779 47.9583 48.5181 47.9736 48.5646 47.9736H49.3419C50.096 47.9736 50.5749 48.1548 50.7786 48.5175H48.5646C48.5145 48.5175 48.4734 48.5319 48.4413 48.5608C48.4092 48.5897 48.3931 48.6265 48.3931 48.6715V49.1625C48.3931 49.2074 48.4091 49.2443 48.4413 49.2731C48.4735 49.302 48.5146 49.3164 48.5646 49.3164H50.8537C50.7751 49.5796 50.5919 49.7801 50.3042 49.9181C50.0164 50.0561 49.6368 50.1251 49.165 50.1251H48.5646C48.5181 50.1251 48.4779 50.1404 48.444 50.1709C48.41 50.2014 48.3931 50.2375 48.3931 50.2792V50.8905C48.3931 50.9323 48.4091 50.9676 48.4413 50.9964C49.1274 51.651 50.0174 52.5671 51.111 53.7449C51.1432 53.7834 51.1878 53.8026 51.245 53.8026H52.2903C52.3655 53.8026 52.4173 53.7738 52.4458 53.7159C52.4816 53.6582 52.4746 53.6036 52.4244 53.5523C51.3809 52.4035 50.5607 51.5435 49.9638 50.9723C50.5714 50.9081 51.0646 50.7316 51.4434 50.4429C51.8222 50.1541 52.0527 49.7786 52.135 49.3165H53.0356C53.0856 49.3165 53.1267 49.3021 53.1588 49.2732C53.191 49.2444 53.2071 49.2075 53.2071 49.1626V48.6716C53.2071 48.6266 53.191 48.5897 53.1588 48.5608Z" fill="white"/>
<defs>
<clipPath id="clip0_2892_507">
<rect width="61.9429" height="61.9429" fill="white"/>
</clipPath>
</defs>
</svg>
