<svg width="64" height="64" viewBox="0 0 64 64" fill="none" xmlns="http://www.w3.org/2000/svg">
<path d="M1 61H63V63H1V61Z" fill="white"/>
<path d="M5 25H6V29H8V25H9C9.553 25 10 24.552 10 24V10C10 9.448 9.553 9 9 9H8V5H6V9H5C4.447 9 4 9.448 4 10V24C4 24.552 4.447 25 5 25ZM6 11H8V23H6V11Z" fill="white"/>
<path d="M15 35H16V39H18V35H19C19.553 35 20 34.553 20 34V20C20 19.448 19.553 19 19 19H18V15H16V19H15C14.447 19 14 19.448 14 20V34C14 34.553 14.447 35 15 35ZM16 21H18V33H16V21Z" fill="white"/>
<path d="M25 21H26V25H28V21H29C29.553 21 30 20.552 30 20V6C30 5.448 29.553 5 29 5H28V1H26V5H25C24.447 5 24 5.448 24 6V20C24 20.552 24.447 21 25 21ZM26 7H28V19H26V7Z" fill="white"/>
<path d="M35 43H36V47H38V43H39C39.553 43 40 42.553 40 42V28C40 27.448 39.553 27 39 27H38V23H36V27H35C34.447 27 34 27.448 34 28V42C34 42.553 34.447 43 35 43ZM36 29H38V41H36V29Z" fill="white"/>
<path d="M45 21H46V25H48V21H49C49.553 21 50 20.552 50 20V6C50 5.448 49.553 5 49 5H48V1H46V5H45C44.447 5 44 5.448 44 6V20C44 20.552 44.447 21 45 21ZM46 7H48V19H46V7Z" fill="white"/>
<path d="M55 25H56V29H58V25H59C59.553 25 60 24.552 60 24V10C60 9.448 59.553 9 59 9H58V5H56V9H55C54.447 9 54 9.448 54 10V24C54 24.552 54.447 25 55 25ZM56 11H58V23H56V11Z" fill="white"/>
<path d="M5 57C7.206 57 9 55.206 9 53C9 52.876 8.974 52.758 8.963 52.637L21.708 46.265C22.43 47.311 23.635 48 25 48C26.283 48 27.413 47.383 28.146 46.441L33.527 51.053C33.201 51.632 33 52.29 33 53C33 55.206 34.794 57 37 57C39.206 57 41 55.206 41 53C41 52.827 40.97 52.663 40.949 52.496L56.923 38.402C57.53 38.774 58.237 39 59 39C61.206 39 63 37.206 63 35C63 32.794 61.206 31 59 31C56.794 31 55 32.794 55 35C55 35.716 55.204 36.378 55.534 36.96L40.136 50.547C39.403 49.612 38.277 49 37 49C36.231 49 35.519 49.228 34.909 49.606L28.95 44.498C28.97 44.333 29 44.17 29 44C29 41.794 27.206 40 25 40C22.794 40 21 41.794 21 44C21 44.124 21.026 44.242 21.037 44.363L8.292 50.736C7.57 49.689 6.365 49 5 49C2.794 49 1 50.794 1 53C1 55.206 2.794 57 5 57ZM59 33C60.103 33 61 33.897 61 35C61 36.103 60.103 37 59 37C57.897 37 57 36.103 57 35C57 33.897 57.897 33 59 33ZM39 53C39 54.103 38.103 55 37 55C35.897 55 35 54.103 35 53C35 51.897 35.897 51 37 51C38.103 51 39 51.897 39 53ZM25 42C26.103 42 27 42.897 27 44C27 45.103 26.103 46 25 46C23.897 46 23 45.103 23 44C23 42.897 23.897 42 25 42ZM5 51C6.103 51 7 51.897 7 53C7 54.103 6.103 55 5 55C3.897 55 3 54.103 3 53C3 51.897 3.897 51 5 51Z" fill="white"/>
</svg>
