<svg width="28" height="28" viewBox="0 0 28 28" fill="none" xmlns="http://www.w3.org/2000/svg">
<path d="M14 28C21.732 28 28 21.732 28 14C28 6.26801 21.732 0 14 0C6.26801 0 0 6.26801 0 14C0 21.732 6.26801 28 14 28Z" fill="#29A71A"/>
<path d="M20.1726 7.82725C18.716 6.35613 16.7817 5.45395 14.7185 5.28342C12.6553 5.1129 10.5991 5.68526 8.92074 6.89727C7.2424 8.10928 6.0524 9.88115 5.56541 11.8933C5.07842 13.9054 5.32648 16.0253 6.26486 17.8707L5.34373 22.3427C5.33417 22.3872 5.3339 22.4332 5.34293 22.4778C5.35197 22.5225 5.37011 22.5647 5.39623 22.602C5.43449 22.6586 5.4891 22.7022 5.55278 22.7269C5.61646 22.7516 5.68616 22.7564 5.75259 22.7404L10.1355 21.7016C11.9757 22.6162 14.0806 22.8483 16.0759 22.3566C18.0711 21.8649 19.8272 20.6813 21.0316 19.0164C22.2361 17.3515 22.8108 15.3132 22.6535 13.2643C22.4962 11.2154 21.6171 9.28881 20.1726 7.82725ZM18.806 18.7345C17.7982 19.7395 16.5004 20.4029 15.0956 20.6312C13.6908 20.8596 12.2498 20.6413 10.9755 20.0072L10.3646 19.705L7.67759 20.3413L7.68555 20.3079L8.24236 17.6034L7.94327 17.0132C7.29221 15.7345 7.06254 14.2826 7.28716 12.8654C7.51178 11.4482 8.17917 10.1385 9.19373 9.12384C10.4685 7.84943 12.1973 7.13351 13.9999 7.13351C15.8024 7.13351 17.5312 7.84943 18.806 9.12384C18.8169 9.13629 18.8286 9.14798 18.841 9.15884C20.1 10.4365 20.8028 12.1601 20.7963 13.9539C20.7897 15.7476 20.0743 17.4661 18.806 18.7345Z" fill="white"/>
<path d="M18.5674 16.7505C18.238 17.2691 17.7178 17.9039 17.0639 18.0614C15.9185 18.3382 14.1605 18.0709 11.973 16.0314L11.946 16.0075C10.0226 14.2241 9.52303 12.7398 9.64394 11.5625C9.71076 10.8944 10.2676 10.2898 10.7369 9.89526C10.8111 9.83194 10.8991 9.78685 10.9938 9.76361C11.0886 9.74037 11.1874 9.73962 11.2825 9.76142C11.3776 9.78322 11.4662 9.82696 11.5414 9.88915C11.6166 9.95134 11.6761 10.0303 11.7153 10.1196L12.4233 11.7105C12.4693 11.8136 12.4863 11.9274 12.4726 12.0395C12.4588 12.1516 12.4149 12.2579 12.3453 12.3469L11.9874 12.8114C11.9105 12.9073 11.8642 13.024 11.8543 13.1465C11.8444 13.269 11.8713 13.3916 11.9317 13.4987C12.1321 13.8503 12.6126 14.3673 13.1455 14.8462C13.7437 15.3871 14.4071 15.8819 14.8271 16.0505C14.9395 16.0964 15.0631 16.1076 15.1819 16.0827C15.3007 16.0577 15.4093 15.9977 15.4937 15.9105L15.9089 15.4921C15.9891 15.4131 16.0887 15.3567 16.1977 15.3288C16.3067 15.3008 16.4211 15.3023 16.5294 15.333L18.211 15.8103C18.3038 15.8387 18.3888 15.888 18.4596 15.9544C18.5304 16.0207 18.585 16.1024 18.6194 16.1931C18.6538 16.2838 18.667 16.3812 18.658 16.4778C18.6489 16.5744 18.618 16.6677 18.5674 16.7505Z" fill="white"/>
</svg>
